<?xml version="1.0" standalone="no"?>
<!DOCTYPE svg PUBLIC "-//W3C//DTD SVG 1.1//EN" "http://www.w3.org/Graphics/SVG/1.1/DTD/svg11.dtd" >
<svg>
<metadata>
Created by FontForge 20090622 at Fri Apr  8 01:36:05 2016
 By deploy user
&#194;&#169; 1985, 1987, 1989, 1990, 1997, 1998, 1999, 2002 Adobe Systems Incorporated. All rights reserved.
</metadata>
<defs>
<font id="HelveticaLTStd-Roman" horiz-adv-x="556" >
  <font-face 
    font-family="Helvetica LT Std"
    font-weight="400"
    font-stretch="normal"
    units-per-em="1000"
    panose-1="2 11 5 4 2 2 2 2 2 4"
    ascent="718"
    descent="-282"
    x-height="523"
    cap-height="718"
    bbox="-166 -225 1000 931"
    underline-thickness="50"
    underline-position="-50"
    unicode-range="U+0020-U+FB02"
  />
<missing-glyph horiz-adv-x="500" 
d="M0 0v700h500v-700h-500zM250 395l170 255h-340zM280 350l170 -255v510zM80 50h340l-170 255zM50 605v-510l170 255z" />
    <glyph glyph-name=".notdef" horiz-adv-x="500" 
d="M0 0v700h500v-700h-500zM250 395l170 255h-340zM280 350l170 -255v510zM80 50h340l-170 255zM50 605v-510l170 255z" />
    <glyph glyph-name=".null" horiz-adv-x="0" 
 />
    <glyph glyph-name="nonmarkingreturn" horiz-adv-x="333" 
 />
    <glyph glyph-name="space" unicode=" " horiz-adv-x="278" 
 />
    <glyph glyph-name="exclam" unicode="!" horiz-adv-x="278" 
d="M187 102v-102h-97v102h97zM163 171h-49l-24 310v237h97v-237z" />
    <glyph glyph-name="quotedbl" unicode="&#x22;" horiz-adv-x="355" 
d="M70 463v255h73v-255h-73zM212 463v255h73v-255h-73z" />
    <glyph glyph-name="numbersign" unicode="#" 
d="M388 210l-29 -210h-66l29 210h-125l-29 -210h-66l29 210h-103l9 63h103l19 142h-103l9 63h103l29 210h67l-29 -210h124l29 210h67l-29 -210h103l-9 -63h-103l-20 -142h103l-9 -63h-103zM350 415h-124l-20 -142h125z" />
    <glyph glyph-name="dollar" unicode="$" 
d="M253 409v229q-55 0 -87 -34t-32 -82q0 -49 34 -76.5t85 -36.5zM300 308v-254q63 0 97.5 36.5t34.5 89.5q0 40 -22.5 70.5t-55.5 40.5zM503 521h-85q-6 47 -30.5 76t-87.5 41v-239q34 -10 49.5 -15l42 -14t39 -16.5l30.5 -19t26 -24t17 -29.5t12.5 -38t3.5 -47
q0 -60 -22 -104.5t-57.5 -67t-71 -33t-69.5 -10.5v-96h-47v96q-103 6 -162 58.5t-59 173.5h88q5 -81 32 -114t101 -45v265q-46 11 -76.5 22.5t-64 33t-50 57t-16.5 84.5q0 82 59.5 138.5t147.5 56.5v64h47v-64q24 -2 45.5 -6t51 -17t51 -32t37.5 -54t18 -81z" />
    <glyph glyph-name="percent" unicode="%" horiz-adv-x="889" 
d="M39 526q0 71 50 120t121 49q70 0 120 -49.5t50 -119.5q0 -71 -50 -121t-120 -50q-71 0 -121 49.5t-50 121.5zM109 526q0 -45 29.5 -73t70.5 -28q43 0 72 29.5t29 71.5t-29 70.5t-71 28.5t-71.5 -29t-29.5 -70zM509 164q0 71 50 120t121 49q70 0 120 -49.5t50 -119.5
q0 -71 -50 -121t-120 -50q-71 0 -121 49.5t-50 121.5zM579 164q0 -45 29.5 -73t70.5 -28q43 0 72 29.5t29 71.5t-29 70.5t-71 28.5t-71.5 -29t-29.5 -70zM669 703l-396 -722h-54l395 722h55z" />
    <glyph glyph-name="ampersand" unicode="&#x26;" horiz-adv-x="667" 
d="M417 141l-162 198q-67 -43 -95 -74.5t-28 -84.5q0 -41 25 -70t52.5 -39t51.5 -10q98 0 156 80zM286 439q26 18 41.5 31t32 39t16.5 54q0 43 -24 61t-53 18q-26 0 -44 -8.5t-26 -22t-11 -25t-3 -22.5q0 -54 71 -125zM517 155l128 -155h-114l-67 82q-42 -48 -89 -72.5
t-120 -24.5q-63 0 -108 21t-65.5 53.5t-29 60.5t-8.5 53q0 76 32.5 123.5t129.5 102.5q-44 54 -60 85t-16 74q0 66 45.5 113t124.5 47t120 -44t41 -104q0 -36 -11.5 -66t-34.5 -54t-39 -36.5t-44 -31.5l131 -156q19 51 29 112h83q-7 -90 -58 -183z" />
    <glyph glyph-name="quotesingle" unicode="'" horiz-adv-x="191" 
d="M59 463v255h73v-255h-73z" />
    <glyph glyph-name="parenleft" unicode="(" horiz-adv-x="333" 
d="M237 733h61q-40 -76 -58.5 -114.5t-40 -100.5t-29.5 -128t-8 -153q0 -113 32.5 -208t104.5 -236h-59q-89 134 -130.5 236.5t-41.5 231.5q0 127 42 239t127 233z" />
    <glyph glyph-name="parenright" unicode=")" horiz-adv-x="333" 
d="M96 -207h-61q40 76 58.5 114.5t40 100.5t29.5 128t8 153q0 113 -32.5 208t-104.5 236h59q89 -134 130.5 -236.5t41.5 -231.5q0 -127 -42 -239t-127 -233z" />
    <glyph glyph-name="asterisk" unicode="*" horiz-adv-x="389" 
d="M39 591l20 55l105 -38v110h60v-110l105 38l20 -55l-108 -34l67 -92l-49 -34l-65 94l-65 -94l-49 34l67 92z" />
    <glyph glyph-name="plus" unicode="+" horiz-adv-x="584" 
d="M256 289v216h73v-216h216v-73h-216v-216h-73v216h-217v73h217z" />
    <glyph glyph-name="comma" unicode="," horiz-adv-x="278" 
d="M87 0v106h104v-98q0 -38 -9.5 -67.5t-21 -45t-28.5 -25.5t-26 -13t-19 -4v46q53 5 53 101h-53z" />
    <glyph glyph-name="hyphen" unicode="-" horiz-adv-x="333" 
d="M289 322v-90h-245v90h245z" />
    <glyph glyph-name="period" unicode="." horiz-adv-x="278" 
d="M191 106v-106h-104v106h104z" />
    <glyph glyph-name="slash" unicode="/" horiz-adv-x="278" 
d="M295 737l-245 -756h-67l246 756h66z" />
    <glyph glyph-name="zero" unicode="0" 
d="M425 342q0 282 -147 282t-147 -282t147 -282t147 282zM519 342q0 -49 -5.5 -94t-21.5 -95.5t-41.5 -87t-70 -60.5t-102.5 -24t-102.5 24t-70 60.5t-41.5 87t-21.5 95.5t-5.5 94t5.5 94t21.5 95.5t41.5 87t70 60.5t102.5 24t102.5 -24t70 -60.5t41.5 -87t21.5 -95.5
t5.5 -94z" />
    <glyph glyph-name="one" unicode="1" 
d="M359 703v-703h-94v499h-164v70q39 3 61.5 6t45.5 11t36.5 22.5t25.5 37.5t20 57h69z" />
    <glyph glyph-name="two" unicode="2" 
d="M132 451h-88q0 65 18.5 113.5t44.5 74.5t62 41t63 19t55 4q94 0 157 -57t63 -153q0 -45 -13.5 -81t-42.5 -64t-57 -46.5t-75 -43.5l-73 -40q-110 -61 -121 -135h382v-83h-481q4 103 46 168.5t119 110.5l93 54q38 22 53.5 32t37.5 30.5t30 44.5t8 57q0 50 -34 88.5
t-105 38.5q-38 0 -65.5 -14.5t-41 -31.5t-22 -46t-10.5 -43t-3 -38z" />
    <glyph glyph-name="three" unicode="3" 
d="M224 324v76q30 -2 46 -2q58 0 96 27t38 88q0 41 -30 76t-100 35q-36 0 -62 -12t-39 -26.5t-21.5 -39t-10.5 -38t-4 -35.5h-86q0 34 5.5 64t21 61.5t40 53.5t66 36.5t94.5 14.5q100 0 158.5 -51.5t58.5 -133.5q0 -61 -27.5 -97.5t-62.5 -47.5v-2q117 -38 117 -164
q0 -95 -63.5 -160.5t-189.5 -65.5q-71 0 -130 31q-94 49 -105 203h91q1 -30 6.5 -53t20 -48.5t46 -39.5t77.5 -14q68 0 110.5 37.5t42.5 98.5q0 129 -164 129q-6 0 -20 -0.5t-20 -0.5z" />
    <glyph glyph-name="four" unicode="4" 
d="M523 171h-103v-171h-88v171h-307v86l322 446h73v-456h103v-76zM330 566l-224 -319h226v319h-2z" />
    <glyph glyph-name="five" unicode="5" 
d="M177 602l-30 -193q57 44 136 44q92 0 161.5 -61t69.5 -164q0 -28 -5 -56t-21.5 -64t-43 -63t-74.5 -45.5t-111 -18.5q-38 0 -72.5 8.5t-68.5 29t-57 60.5t-29 96h91q6 -59 46.5 -88.5t102.5 -29.5q67 0 107.5 46.5t40.5 114.5q0 73 -44 114.5t-112 41.5q-79 0 -130 -67
l-76 4l53 377h364v-86h-298z" />
    <glyph glyph-name="six" unicode="6" 
d="M503 516h-86q-19 108 -121 108q-48 0 -83.5 -29t-52 -74t-24 -84t-7.5 -73l2 -2q50 86 167 86q35 0 71 -12t70.5 -36t56.5 -69.5t22 -105.5q0 -103 -67 -176q-31 -34 -70 -51t-108 -17q-47 0 -97 24t-84 78q-54 85 -54 244q0 65 12 125t39 119.5t80.5 95.5t128.5 36
q33 0 65.5 -9.5t63.5 -30t52 -58.5t24 -89zM141 216q0 -63 38 -109.5t110 -46.5q63 0 100.5 44.5t37.5 116.5q0 57 -34 102.5t-108 45.5q-70 0 -107 -43.5t-37 -109.5z" />
    <glyph glyph-name="seven" unicode="7" 
d="M37 602v86h486v-77q-32 -33 -68.5 -84t-82 -128.5t-83 -183t-55.5 -215.5h-97q18 141 100.5 311t186.5 291h-387z" />
    <glyph glyph-name="eight" unicode="8" 
d="M492 522q0 -35 -9 -62.5t-25.5 -44.5t-27.5 -24.5t-28 -16.5q64 -27 89.5 -74t25.5 -97q0 -93 -60.5 -157.5t-177.5 -64.5q-100 0 -169 54q-72 57 -72 167q0 123 119 171q-95 36 -95 137q0 31 10 61.5t32.5 61.5t67 50.5t103.5 19.5q108 0 162.5 -55t54.5 -126zM277 330
q-70 0 -107.5 -38.5t-37.5 -91.5q0 -24 6.5 -46t22 -44.5t47 -36t74.5 -13.5q141 0 141 133q0 68 -41 102.5t-105 34.5zM276 406q56 0 90.5 32t34.5 81q0 40 -31 72.5t-100 32.5q-63 0 -90 -33.5t-27 -76.5q0 -48 36.5 -78t86.5 -30z" />
    <glyph glyph-name="nine" unicode="9" 
d="M263 235q-99 0 -160 61.5t-61 165.5q0 102 60 171.5t166 69.5q64 0 111.5 -24t72.5 -57.5t39.5 -81.5t18.5 -84.5t4 -78.5q0 -22 -1.5 -46t-7 -65t-15.5 -77t-29.5 -75.5t-45 -67.5t-66 -46.5t-90.5 -18.5q-58 0 -101.5 19.5t-65.5 50t-32 60t-10 58.5h88q4 -54 35 -84.5
t84 -30.5q72 0 112 63t57 200l-2 2q-19 -39 -64.5 -61.5t-96.5 -22.5zM276 314q21 0 41 6t43 21.5t37 49.5t14 83q0 65 -35.5 107.5t-106.5 42.5q-61 0 -98.5 -43.5t-37.5 -114.5q0 -152 143 -152z" />
    <glyph glyph-name="colon" unicode=":" horiz-adv-x="278" 
d="M191 106v-106h-104v106h104zM191 516v-106h-104v106h104z" />
    <glyph glyph-name="semicolon" unicode=";" horiz-adv-x="278" 
d="M87 0v106h104v-98q0 -38 -9.5 -67.5t-21 -45t-28.5 -25.5t-26 -13t-19 -4v46q53 5 53 101h-53zM191 410h-104v106h104v-106z" />
    <glyph glyph-name="less" unicode="&#x3c;" horiz-adv-x="584" 
d="M536 91v-80l-488 207v70l488 207v-80l-390 -162z" />
    <glyph glyph-name="equal" unicode="=" horiz-adv-x="584" 
d="M545 390v-73h-506v73h506zM545 188v-73h-506v73h506z" />
    <glyph glyph-name="greater" unicode="&#x3e;" horiz-adv-x="584" 
d="M48 415v80l488 -207v-70l-488 -207v80l390 162z" />
    <glyph glyph-name="question" unicode="?" 
d="M144 493h-88q2 45 5.5 69t21.5 58.5t52 60.5q59 46 145 46q89 0 150.5 -52t61.5 -144q0 -47 -20 -80t-74 -85q-39 -38 -53 -54.5t-24.5 -48.5t-9.5 -80h-88q0 80 18.5 117.5t76.5 97.5q53 55 66.5 76.5t13.5 62.5q0 18 -5.5 36t-18 36.5t-38 30t-59.5 11.5
q-133 0 -133 -158zM318 102v-102h-97v102h97z" />
    <glyph glyph-name="at" unicode="@" horiz-adv-x="1015" 
d="M611 408q0 37 -24.5 64.5t-57.5 27.5q-63 0 -107 -63.5t-44 -131.5q0 -43 23.5 -70t60.5 -27q60 0 104.5 67t44.5 133zM642 494l20 62h68q-14 -53 -38.5 -135.5l-38 -130.5t-13.5 -60q0 -29 21 -29q51 0 96.5 68t45.5 148q0 117 -81 187.5t-198 70.5q-132 0 -218 -92.5
t-86 -227.5q0 -133 90 -222.5t221 -89.5q70 0 135 30.5t108 83.5h67q-49 -82 -132.5 -129t-179.5 -47q-161 0 -271.5 110t-110.5 270q0 156 111 266t266 110q142 0 243 -89t101 -223q0 -64 -24.5 -121t-61.5 -92t-78 -55.5t-75 -20.5q-27 0 -45 16t-19 47l-2 -1
q-58 -62 -120 -62q-63 0 -105 47t-42 113q0 107 65.5 191.5t165.5 84.5q79 0 115 -78z" />
    <glyph glyph-name="A" unicode="A" horiz-adv-x="667" 
d="M477 209h-288l-75 -209h-100l270 718h110l260 -718h-106zM219 295h223l-106 316h-2z" />
    <glyph glyph-name="B" unicode="B" horiz-adv-x="667" 
d="M171 635v-221h175q74 0 112 26.5t38 89.5q0 52 -35 78.5t-114 26.5h-176zM74 0v718h316q96 0 149.5 -51.5t53.5 -129.5q0 -105 -96 -150q26 -11 41.5 -19.5t39.5 -28t36.5 -52t12.5 -75.5q0 -91 -64.5 -151.5t-179.5 -60.5h-309zM171 335v-252h207q74 0 113 35t39 96
q0 121 -168 121h-191z" />
    <glyph glyph-name="C" unicode="C" horiz-adv-x="722" 
d="M674 502h-94q-10 45 -32.5 76t-53 46t-58 21t-57.5 6q-102 0 -168.5 -74.5t-66.5 -210.5q0 -299 238 -299q28 0 55 8t58 27.5t55.5 61t36.5 100.5h94q-8 -56 -27.5 -101t-42.5 -74t-53.5 -50t-56.5 -32t-55.5 -17t-46 -7.5t-32.5 -1.5q-64 0 -120 21.5t-102.5 65.5
t-73.5 119.5t-27 175.5q0 168 90 271t245 103q131 0 207.5 -68.5t87.5 -166.5z" />
    <glyph glyph-name="D" unicode="D" horiz-adv-x="722" 
d="M81 0v718h291q139 0 220.5 -96t81.5 -253q0 -51 -9 -100.5t-31 -99t-56 -86.5t-88 -60t-122 -23h-287zM178 635v-552h188q96 0 152 73t56 207q0 133 -57 202.5t-158 69.5h-181z" />
    <glyph glyph-name="E" unicode="E" horiz-adv-x="667" 
d="M616 86v-86h-530v718h523v-86h-426v-220h393v-86h-393v-240h433z" />
    <glyph glyph-name="F" unicode="F" horiz-adv-x="611" 
d="M183 326v-326h-97v718h497v-86h-400v-220h352v-86h-352z" />
    <glyph glyph-name="G" unicode="G" horiz-adv-x="778" 
d="M389 301v83h315v-384h-63l-23 93q-37 -51 -100.5 -81.5t-136.5 -30.5q-137 0 -220 81q-51 48 -78 110.5t-31 101t-4 91.5q0 68 21 132.5t61 119t107 87.5t151 33q110 0 199.5 -62t104.5 -175h-94q-14 58 -52.5 94t-77.5 46.5t-85 10.5q-101 0 -168 -77.5t-67 -213.5
q0 -59 11 -108.5t36.5 -93.5t74 -69t117.5 -25q89 0 147 46q79 63 79 191h-224z" />
    <glyph glyph-name="H" unicode="H" horiz-adv-x="722" 
d="M549 421v297h97v-718h-97v335h-375v-335h-97v718h97v-297h375z" />
    <glyph glyph-name="I" unicode="I" horiz-adv-x="278" 
d="M188 718v-718h-97v718h97z" />
    <glyph glyph-name="J" unicode="J" horiz-adv-x="500" 
d="M17 231h91v-50q0 -117 108 -117q115 0 115 124v530h97v-524q0 -60 -18 -103.5t-49.5 -66.5t-66 -33t-73.5 -10q-59 0 -101.5 18t-63.5 47t-30 57t-9 57v71z" />
    <glyph glyph-name="K" unicode="K" horiz-adv-x="667" 
d="M173 252v-252h-97v718h97v-348l348 348h134l-299 -290l307 -428h-126l-251 360z" />
    <glyph glyph-name="L" unicode="L" 
d="M173 718v-632h364v-86h-461v718h97z" />
    <glyph glyph-name="M" unicode="M" horiz-adv-x="833" 
d="M761 0h-94v424q0 5 1 72.5t1 106.5h-2l-202 -603h-96l-202 602h-2q0 -39 1 -106t1 -72v-424h-94v718h139l205 -607h2l204 607h138v-718z" />
    <glyph glyph-name="N" unicode="N" horiz-adv-x="722" 
d="M552 138v580h94v-718h-109l-365 580h-2v-580h-94v718h115l359 -580h2z" />
    <glyph glyph-name="O" unicode="O" horiz-adv-x="778" 
d="M639 359q0 129 -67.5 210.5t-182.5 81.5t-182.5 -81.5t-67.5 -210.5t67.5 -210.5t182.5 -81.5t182.5 81.5t67.5 210.5zM739 359q0 -50 -10.5 -99.5t-36 -100.5t-64 -90t-100.5 -63.5t-139 -24.5t-139 24.5t-100.5 63.5t-64 90t-36 100.5t-10.5 99.5t10.5 99.5t36 100.5
t64 90t100.5 63.5t139 24.5t139 -24.5t100.5 -63.5t64 -90t36 -100.5t10.5 -99.5z" />
    <glyph glyph-name="P" unicode="P" horiz-adv-x="667" 
d="M183 635v-249h193q146 0 146 129q0 120 -142 120h-197zM183 303v-303h-97v718h323q98 0 155.5 -56.5t57.5 -145.5q0 -54 -19.5 -100t-69.5 -79.5t-124 -33.5h-226z" />
    <glyph glyph-name="Q" unicode="Q" horiz-adv-x="778" 
d="M420 148l49 60l91 -71q79 79 79 222q0 129 -67.5 210.5t-182.5 81.5t-182.5 -81.5t-67.5 -210.5t67.5 -210.5t182.5 -81.5q60 0 106 23zM733 2l-49 -58l-110 85q-75 -48 -185 -48q-77 0 -139 24.5t-100.5 63.5t-64 90t-36 100.5t-10.5 99.5t10.5 99.5t36 100.5t64 90
t100.5 63.5t139 24.5t139 -24.5t100.5 -63.5t64 -90t36 -100.5t10.5 -99.5q0 -76 -25.5 -151.5t-78.5 -129.5z" />
    <glyph glyph-name="R" unicode="R" horiz-adv-x="722" 
d="M185 308v-308h-97v718h332q48 0 87.5 -9t74.5 -30t54.5 -60t19.5 -94q0 -49 -17 -86t-35.5 -53t-47.5 -33q20 -8 31 -14.5t25 -21t21.5 -39t8.5 -60.5l6 -130q1 -31 7.5 -45.5t28.5 -26.5v-16h-119q-17 53 -17 180q0 26 -4 45.5t-16 40t-39.5 31.5t-68.5 11h-235z
M185 635v-244h225q30 0 53.5 5t45.5 17t34.5 38t12.5 64q0 120 -129 120h-242z" />
    <glyph glyph-name="S" unicode="S" horiz-adv-x="667" 
d="M600 508h-91q-3 76 -55 111t-123 35q-27 0 -52 -5t-52 -17t-43.5 -39t-16.5 -65q0 -71 85 -91l205 -47q163 -39 163 -192q0 -61 -26 -105.5t-69 -67.5t-89.5 -33.5t-96.5 -10.5q-141 0 -217 69q-42 38 -57.5 81.5t-15.5 100.5h91q0 -89 58.5 -128.5t139.5 -39.5
q31 0 59.5 5t59.5 16.5t50 37.5t19 62q0 55 -31.5 80.5t-121.5 46.5l-147 34q-153 36 -153 169q0 93 62.5 157.5t184.5 64.5q72 0 125 -17t81 -40.5t45.5 -57.5t22 -59t6.5 -55z" />
    <glyph glyph-name="T" unicode="T" horiz-adv-x="611" 
d="M14 632v86h583v-86h-243v-632h-97v632h-243z" />
    <glyph glyph-name="U" unicode="U" horiz-adv-x="722" 
d="M547 718h97v-466q0 -117 -74 -194t-215 -77q-136 0 -206 74.5t-70 183.5v479h97v-452q0 -56 16 -96.5t43 -62t57.5 -31t65.5 -9.5q36 0 67.5 9.5t60 30.5t45 61t16.5 96v454z" />
    <glyph glyph-name="V" unicode="V" horiz-adv-x="667" 
d="M335 106l203 612h109l-262 -718h-103l-262 718h108l205 -612h2z" />
    <glyph glyph-name="W" unicode="W" horiz-adv-x="944" 
d="M471 595l-166 -595h-102l-187 718h105l134 -584h2l161 584h106l161 -584h2l134 584h107l-189 -718h-102l-164 595h-2z" />
    <glyph glyph-name="X" unicode="X" horiz-adv-x="667" 
d="M396 368l252 -368h-120l-193 295l-199 -295h-117l257 368l-241 350h122l182 -275l182 275h116z" />
    <glyph glyph-name="Y" unicode="Y" horiz-adv-x="667" 
d="M382 289v-289h-97v289l-271 429h113l206 -345l206 345h114z" />
    <glyph glyph-name="Z" unicode="Z" horiz-adv-x="611" 
d="M588 86v-86h-565v81l440 551h-407v86h532v-84l-442 -548h442z" />
    <glyph glyph-name="bracketleft" unicode="[" horiz-adv-x="278" 
d="M142 651v-776h108v-71h-187v918h187v-71h-108z" />
    <glyph glyph-name="backslash" unicode="\" horiz-adv-x="278" 
d="M228 -19l-245 756h66l246 -756h-67z" />
    <glyph glyph-name="bracketright" unicode="]" horiz-adv-x="278" 
d="M136 -125v776h-108v71h187v-918h-187v71h108z" />
    <glyph glyph-name="asciicircum" unicode="^" horiz-adv-x="469" 
d="M483 264h-77l-171 344l-171 -344h-78l213 424h72z" />
    <glyph glyph-name="underscore" unicode="_" 
d="M556 -125h-556v50h556v-50z" />
    <glyph glyph-name="grave" unicode="`" horiz-adv-x="333" 
d="M144 593l-130 141h108l89 -141h-67z" />
    <glyph glyph-name="a" unicode="a" 
d="M143 364h-81q6 174 216 174q17 0 36.5 -2t49.5 -11t52.5 -23.5t39 -43t16.5 -66.5v-301q0 -31 29 -31q9 0 29 4v-64q-38 -10 -48 -10q-53 0 -71.5 21.5t-21.5 58.5q-78 -85 -189 -85q-72 0 -118 42t-46 109q0 17 2.5 32.5t12 38.5t25.5 40.5t46.5 32.5t72.5 20l145 18
q46 4 46 62q0 85 -123 85q-35 0 -59.5 -9.5t-36.5 -27t-16.5 -31t-7.5 -33.5zM384 181v86q-22 -17 -145 -33q-21 -3 -36.5 -7t-35 -12.5t-30 -25.5t-10.5 -40q0 -91 95 -91q63 0 112.5 36t49.5 87z" />
    <glyph glyph-name="b" unicode="b" 
d="M141 0h-83v718h88v-261h2q55 79 151 81q101 0 159.5 -73.5t58.5 -187.5q0 -51 -11.5 -99t-36 -93t-72 -72.5t-110.5 -27.5q-94 0 -144 80h-2v-65zM426 263q0 196 -143 196q-141 0 -141 -222q0 -93 44.5 -134.5t98.5 -41.5q69 0 105 55.5t36 146.5z" />
    <glyph glyph-name="c" unicode="c" horiz-adv-x="500" 
d="M477 347h-85q-18 112 -124 112q-75 0 -109.5 -58t-34.5 -139q0 -201 143 -201q45 0 79.5 32.5t45.5 91.5h85q-4 -35 -16.5 -67t-35.5 -63.5t-65 -50.5t-96 -19q-108 0 -171 73t-63 189q0 129 63.5 210t187.5 81q94 0 142 -56t54 -135z" />
    <glyph glyph-name="d" unicode="d" 
d="M499 718v-718h-83v72h-2q-47 -87 -149 -87q-63 0 -110.5 27.5t-72 72.5t-36 93t-11.5 99q0 114 58.5 187.5t159.5 73.5q43 0 78.5 -18t48 -32.5t29.5 -38.5l2 7v262h88zM126 263q0 -91 36 -146.5t105 -55.5q54 0 98.5 41.5t44.5 134.5q0 222 -141 222q-143 0 -143 -196z
" />
    <glyph glyph-name="e" unicode="e" 
d="M421 164h88q-3 -28 -26.5 -71t-66.5 -72q-54 -36 -142 -36q-108 0 -171 73t-63 189q0 129 63.5 210t187.5 81q111 0 168 -81.5t57 -223.5h-382q0 -83 38.5 -127.5t113.5 -44.5q57 0 94.5 34.5t40.5 68.5zM134 303h291q-10 156 -146 156q-60 0 -102.5 -47t-42.5 -109z" />
    <glyph glyph-name="f" unicode="f" horiz-adv-x="278" 
d="M262 450h-88v-450h-88v450h-72v73h72v90q0 115 136 115q12 0 40 -2v-79q-22 2 -36 2q-28 0 -40 -14.5t-12 -46.5v-65h88v-73z" />
    <glyph glyph-name="g" unicode="g" 
d="M131 263q0 -91 36 -146.5t105 -55.5q54 0 98.5 41.5t44.5 134.5q0 222 -141 222q-143 0 -143 -196zM499 523v-480q0 -23 -0.5 -38.5t-5.5 -46t-13.5 -51.5t-26.5 -46.5t-43 -42t-64.5 -27.5t-89.5 -11q-22 0 -43 2.5t-49 12.5t-48.5 26t-37.5 45.5t-22 69.5h88
q16 -83 118 -83q28 0 50 5t37.5 15.5t26.5 20.5t17.5 28l10.5 29t5.5 31.5t1.5 28.5v26v22h-2v-4q-44 -70 -139 -70q-63 0 -110.5 27.5t-72 72.5t-36 93t-11.5 99q0 114 58.5 187.5t159.5 73.5q43 0 78.5 -18t48 -32.5t29.5 -38.5h2v74h83z" />
    <glyph glyph-name="h" unicode="h" 
d="M491 356v-356h-88v342q0 58 -22.5 87.5t-81.5 29.5q-62 0 -104 -41.5t-42 -132.5v-285h-88v718h88v-265h2q64 85 153 85q26 0 50 -4.5t49 -17t43 -32t29.5 -52.5t11.5 -76z" />
    <glyph glyph-name="i" unicode="i" horiz-adv-x="222" 
d="M155 523v-523h-88v523h88zM155 618h-88v100h88v-100z" />
    <glyph glyph-name="j" unicode="j" horiz-adv-x="222" 
d="M155 523v-600q0 -18 -1.5 -31.5t-8.5 -34t-20.5 -34t-40 -23.5t-63.5 -10q-18 0 -37 3v76h18q41 0 53 10.5t12 53.5v590h88zM155 718v-100h-88v100h88z" />
    <glyph glyph-name="k" unicode="k" horiz-adv-x="500" 
d="M289 328l212 -328h-113l-163 264l-73 -66v-198h-85v718h85v-416l225 221h112z" />
    <glyph glyph-name="l" unicode="l" horiz-adv-x="222" 
d="M155 718v-718h-88v718h88z" />
    <glyph glyph-name="m" unicode="m" horiz-adv-x="833" 
d="M65 0v523h83v-74h2q60 89 158 89q33 0 58.5 -8.5t41.5 -24.5t23 -26t16 -26q27 30 44 45t47.5 27.5t68.5 12.5q25 0 49.5 -7.5t51.5 -25t44 -54.5t17 -89v-362h-88v338q0 58 -22 89.5t-75 31.5t-88 -42.5t-35 -97.5v-319h-88v362q0 40 -19 68.5t-63 28.5
q-22 0 -43.5 -7.5t-44 -25.5t-36.5 -54.5t-14 -86.5v-285h-88z" />
    <glyph glyph-name="n" unicode="n" 
d="M491 356v-356h-88v322q0 71 -25 104t-87 33q-22 0 -43.5 -7.5t-44 -25.5t-36.5 -54.5t-14 -86.5v-285h-88v523h83v-74h2q60 89 158 89q26 0 50 -4.5t49 -17t43 -32t29.5 -52.5t11.5 -76z" />
    <glyph glyph-name="o" unicode="o" 
d="M35 262q0 112 63 194t180 82t180 -82t63 -194t-63 -194t-180 -82t-180 82t-63 194zM126 262q0 -31 6.5 -61.5t22 -64t47.5 -54t76 -20.5t76 20.5t47.5 54t22 64t6.5 61.5t-6.5 61.5t-22 64t-47.5 54t-76 20.5t-76 -20.5t-47.5 -54t-22 -64t-6.5 -61.5z" />
    <glyph glyph-name="p" unicode="p" 
d="M142 237q0 -93 44.5 -134.5t98.5 -41.5q69 0 105 55.5t36 146.5q0 196 -143 196q-141 0 -141 -222zM58 -207v730h83v-74h2q17 24 29.5 38.5t48 32.5t78.5 18q101 0 159.5 -73.5t58.5 -187.5q0 -51 -11.5 -99t-36 -93t-72 -72.5t-110.5 -27.5q-95 0 -139 70h-2v-262h-88z
" />
    <glyph glyph-name="q" unicode="q" 
d="M494 523v-730h-88v262h-2q-44 -70 -139 -70q-63 0 -110.5 27.5t-72 72.5t-36 93t-11.5 99q0 114 58.5 187.5t159.5 73.5q43 0 78.5 -18t48 -32.5t29.5 -38.5h2v74h83zM410 237q0 222 -141 222q-143 0 -143 -196q0 -91 36 -146.5t105 -55.5q54 0 98.5 41.5t44.5 134.5z
" />
    <glyph glyph-name="r" unicode="r" horiz-adv-x="333" 
d="M165 304v-304h-88v523h83v-87h2q59 102 147 102q13 0 23 -3v-91h-33q-60 0 -97 -40.5t-37 -99.5z" />
    <glyph glyph-name="s" unicode="s" horiz-adv-x="500" 
d="M447 374h-85q-3 88 -124 88q-19 0 -39.5 -4t-42.5 -22t-22 -48t19.5 -43t75.5 -27l88 -22q81 -20 114 -52t33 -86q0 -79 -58 -126t-149 -47q-59 0 -102.5 13.5t-65.5 32t-35.5 46.5t-17 47t-4.5 44h85q1 -20 6 -35t18 -33.5t42 -28.5t73 -10q51 0 85.5 21t34.5 62
q0 30 -22 45t-82 30l-102 25q-121 30 -121 127q0 81 57 124t141 43q53 0 92.5 -15t59 -35t31.5 -45.5t14.5 -41t2.5 -27.5z" />
    <glyph glyph-name="t" unicode="t" horiz-adv-x="278" 
d="M257 450h-84v-340q0 -41 53 -41h31v-69q-13 -1 -28.5 -3t-24.5 -3t-13 -1q-60 0 -83 29.5t-23 82.5v345h-71v73h71v146h88v-146h84v-73z" />
    <glyph glyph-name="u" unicode="u" 
d="M489 0h-83v76l-2 2q-29 -48 -67 -70.5t-99 -22.5q-69 0 -119.5 38.5t-50.5 123.5v376h88v-347q0 -115 101 -115q40 0 69 16t45 43t23 55.5t7 59.5v288h88v-523z" />
    <glyph glyph-name="v" unicode="v" horiz-adv-x="500" 
d="M248 97l148 426h96l-199 -523h-94l-191 523h102l136 -426h2z" />
    <glyph glyph-name="w" unicode="w" horiz-adv-x="722" 
d="M358 405l-102 -405h-91l-151 523h96l100 -411h2l101 411h98l102 -411h2l106 411h88l-152 -523h-91l-106 405h-2z" />
    <glyph glyph-name="x" unicode="x" horiz-adv-x="500" 
d="M306 269l184 -269h-112l-130 197l-126 -197h-111l184 269l-175 254h113l121 -184l121 184h108z" />
    <glyph glyph-name="y" unicode="y" horiz-adv-x="500" 
d="M252 97l140 426h97q-132 -371 -188 -513l-36 -91t-29 -60.5t-26.5 -41t-28.5 -20t-36 -10.5t-49 -1q-9 0 -37 8v80q25 -9 53 -9q33 0 46.5 18.5t46.5 102.5l-194 537h100l139 -426h2z" />
    <glyph glyph-name="z" unicode="z" horiz-adv-x="500" 
d="M460 451l-312 -378h321v-73h-438v69l315 381h-291v73h405v-72z" />
    <glyph glyph-name="braceleft" unicode="{" horiz-adv-x="334" 
d="M42 234v60q35 0 58 36t23 91v172q0 59 30.5 94t71.5 35h67v-65h-44q-46 0 -46 -82v-170q-4 -64 -33.5 -99t-54.5 -41v-2q10 -3 22 -11t27 -23.5t26 -44t13 -64.5v-169q0 -82 46 -82h44v-65h-67q-41 0 -71.5 35t-30.5 94v171q0 56 -23 93t-58 37z" />
    <glyph glyph-name="bar" unicode="|" horiz-adv-x="260" 
d="M94 -19v756h73v-756h-73z" />
    <glyph glyph-name="braceright" unicode="}" horiz-adv-x="334" 
d="M292 294v-60q-35 0 -58 -37t-23 -93v-171q0 -59 -30.5 -94t-71.5 -35h-67v65h44q46 0 46 82v169q2 36 13 64.5t26 44t27 23.5t22 11v2q-25 6 -54.5 41t-33.5 99v170q0 82 -46 82h-44v65h67q41 0 71.5 -35t30.5 -94v-172q0 -55 23 -91t58 -36z" />
    <glyph glyph-name="asciitilde" unicode="~" horiz-adv-x="584" 
d="M487 326l36 -56q-54 -86 -125 -86q-42 0 -102 33q-62 35 -115 35q-51 0 -84 -72l-36 56q45 86 125 86q39 0 111 -32q78 -36 102 -36q19 0 36.5 12t27 24.5t24.5 35.5z" />
    <glyph glyph-name="uni00A0" unicode="&#xa0;" horiz-adv-x="278" 
 />
    <glyph glyph-name="exclamdown" unicode="&#xa1;" horiz-adv-x="333" 
d="M118 421v102h97v-102h-97zM142 352h49l24 -310v-237h-97v237z" />
    <glyph glyph-name="cent" unicode="&#xa2;" 
d="M212 78l108 381q-8 3 -29 3q-68 0 -110 -54t-42 -163q0 -54 20.5 -100.5t52.5 -66.5zM509 345h-82q-20 84 -68 102l-110 -386q13 -4 35 -4q53 0 90 27t54 99h85q-4 -31 -17 -63t-37.5 -65t-69 -53.5t-102.5 -20.5q-16 0 -60 7l-31 -103h-41l34 114q-62 30 -100 92
t-38 154q0 140 64.5 216.5t181.5 76.5q28 0 43 -6l26 91h39l-25 -100q40 -11 80.5 -54.5t48.5 -123.5z" />
    <glyph glyph-name="sterling" unicode="&#xa3;" 
d="M204 380h167v-63h-138q9 -34 9 -66q0 -45 -30.5 -95.5t-89.5 -89.5l1 -1q65 37 131 37q34 0 92 -17.5t76 -17.5q19 0 41.5 9.5t34.5 21.5l41 -66q-63 -48 -127 -48q-28 0 -99 22.5t-110 22.5q-53 0 -117 -40l-49 69q68 45 95 97t27 90q0 29 -19 72h-107v63h69
q-43 88 -43 134q0 34 12 67.5t38.5 65.5t77 51.5t119.5 19.5q106 0 160.5 -63t54.5 -150v-15h-88v9q0 63 -38 103t-99 40q-73 0 -108 -41t-35 -82q0 -46 51 -139z" />
    <glyph glyph-name="currency" unicode="&#xa4;" 
d="M480 603l48 -48l-55 -54q50 -57 50 -150q0 -89 -50 -151l54 -56l-45 -45l-55 58q-59 -55 -149 -55t-149 55l-55 -58l-45 45l54 56q-50 62 -50 151q0 93 50 150l-55 54l48 48l57 -56q59 51 145 51t145 -51zM106 351q0 -73 50.5 -126t121.5 -53t121.5 53t50.5 126
q0 71 -50.5 124t-121.5 53t-121.5 -53t-50.5 -124z" />
    <glyph glyph-name="yen" unicode="&#xa5;" 
d="M42 327v57h154l-193 304h100l175 -295l175 295h100l-193 -304h155v-57h-193v-85h193v-57h-193v-185h-88v185h-192v57h192v85h-192z" />
    <glyph glyph-name="brokenbar" unicode="&#xa6;" horiz-adv-x="260" 
d="M94 -19v294h73v-294h-73zM94 460v277h73v-277h-73z" />
    <glyph glyph-name="section" unicode="&#xa7;" 
d="M460 554h-85q-1 15 -2 24t-7 27t-15.5 28.5t-29 19t-45.5 8.5q-35 0 -63.5 -20t-28.5 -61q0 -46 73 -90l146 -86q53 -31 81 -67t28 -93t-28 -93.5t-75 -66.5q52 -55 52 -114q0 -73 -56 -117t-125 -44q-89 0 -143 46.5t-54 141.5h88q0 -112 97 -112q17 0 32.5 3t33.5 11
t28.5 26t10.5 43q0 43 -55 79l-210 140q-65 43 -65 122q0 59 25 94t75 64q-26 29 -36.5 50t-10.5 50q0 65 45 117.5t135 52.5q33 0 63 -8t58.5 -27.5t45.5 -57t17 -90.5zM367 321l-174 107q-67 -34 -67 -97q0 -57 45 -85l189 -122q34 23 51.5 44.5t17.5 56.5q0 58 -62 96z
" />
    <glyph glyph-name="dieresis" unicode="&#xa8;" horiz-adv-x="333" 
d="M131 706v-102h-91v102h91zM293 706v-102h-91v102h91z" />
    <glyph glyph-name="copyright" unicode="&#xa9;" horiz-adv-x="737" 
d="M370 -19q-158 0 -271 108.5t-113 270.5q0 161 113 269t271 108q157 0 269.5 -108.5t112.5 -268.5q0 -162 -112.5 -270.5t-269.5 -108.5zM62 360q0 -136 88.5 -226t219.5 -90q129 0 217.5 90t88.5 226q0 134 -88.5 224t-217.5 90q-130 0 -219 -90t-89 -224zM501 289h68
q-14 -74 -65 -117.5t-121 -43.5q-100 0 -161.5 66.5t-61.5 166.5q0 102 59.5 166.5t159.5 64.5q74 0 126.5 -41.5t62.5 -115.5h-67q-9 42 -41.5 66.5t-79.5 24.5q-68 0 -106 -46t-38 -118q0 -70 40.5 -119t106.5 -49q47 0 79 26.5t39 68.5z" />
    <glyph glyph-name="ordfeminine" unicode="&#xaa;" horiz-adv-x="370" 
d="M346 454v-44q-25 -5 -32 -5q-34 0 -46 13t-14 38q-51 -51 -123 -51q-47 0 -77 25.5t-30 65.5q0 89 112 102l88 10q24 4 24 38q0 39 -76 39q-70 0 -77 -53h-54q4 105 141 105q15 0 32 -2.5t41 -10.5t39 -27.5t15 -47.5v-178q0 -19 18 -19q5 0 19 2zM145 457
q42 0 73.5 21.5t29.5 52.5v39q-10 -10 -92 -20q-69 -7 -69 -43q0 -50 58 -50zM35 352h296v-48h-296v48z" />
    <glyph glyph-name="guillemotleft" unicode="&#xab;" 
d="M254 196v-88l-157 123v92l157 123v-88l-105 -81zM459 196v-88l-157 123v92l157 123v-88l-105 -81z" />
    <glyph glyph-name="logicalnot" unicode="&#xac;" horiz-adv-x="584" 
d="M472 108v209h-433v73h506v-282h-73z" />
    <glyph glyph-name="uni00AD" unicode="&#xad;" horiz-adv-x="333" 
d="M289 322v-90h-245v90h245z" />
    <glyph glyph-name="registered" unicode="&#xae;" horiz-adv-x="737" 
d="M370 -19q-158 0 -271 108.5t-113 270.5q0 161 113 269t271 108q157 0 269.5 -108.5t112.5 -268.5q0 -162 -112.5 -270.5t-269.5 -108.5zM62 360q0 -136 88.5 -226t219.5 -90q129 0 217.5 90t88.5 226q0 134 -88.5 224t-217.5 90q-130 0 -219 -90t-89 -224zM290 330v-189
h-66v436h166q78 0 116 -30t38 -94q0 -106 -113 -120l124 -192h-74l-115 189h-76zM290 386h79q25 0 40.5 2t32.5 8.5t25 21.5t8 39q0 64 -95 64h-90v-135z" />
    <glyph glyph-name="macron" unicode="&#xaf;" horiz-adv-x="333" 
d="M323 684v-57h-313v57h313z" />
    <glyph glyph-name="degree" unicode="&#xb0;" horiz-adv-x="400" 
d="M200 660q-39 0 -68.5 -31.5t-29.5 -71.5t29.5 -71.5t68.5 -31.5t68.5 31.5t29.5 71.5t-29.5 71.5t-68.5 31.5zM346 557q0 -62 -42 -104t-104 -42t-104 42t-42 104t42 104t104 42t104 -42t42 -104z" />
    <glyph glyph-name="plusminus" unicode="&#xb1;" horiz-adv-x="584" 
d="M256 345v161h73v-161h216v-73h-216v-161h-73v161h-217v73h217zM39 0v73h506v-73h-506z" />
    <glyph glyph-name="twosuperior" unicode="&#xb2;" horiz-adv-x="333" 
d="M79 552h-60q0 39 12 68t29 44.5t40.5 24.5t41 11.5t35.5 2.5q63 0 104.5 -34.5t41.5 -91.5q0 -52 -29.5 -82t-89.5 -60l-45 -23q-55 -29 -80 -70h244v-61h-319q5 112 104 167l60 33q28 15 36.5 20.5t24 18t20 26t4.5 33.5q3 26 -17.5 46t-66.5 20q-83 0 -90 -93z" />
    <glyph glyph-name="threesuperior" unicode="&#xb3;" horiz-adv-x="333" 
d="M5 410h68q1 -16 4 -28t11.5 -25.5t26 -21t44.5 -7.5q96 0 96 71q0 20 -7.5 34.5t-17 21.5t-26 11t-26.5 4.5t-26 0.5h-23v51h27q82 0 82 67q0 56 -80 56q-76 0 -81 -80h-61q0 56 34.5 97t116.5 41q65 0 103 -31t38 -80q0 -37 -18 -59t-41 -28v-2q76 -20 76 -97
q0 -57 -41.5 -96.5t-125.5 -39.5q-46 0 -84 19q-61 29 -69 121z" />
    <glyph glyph-name="acute" unicode="&#xb4;" horiz-adv-x="333" 
d="M319 734l-130 -141h-67l89 141h108z" />
    <glyph glyph-name="mu" unicode="&#xb5;" horiz-adv-x="578" 
d="M489 0h-83v76l-2 2q-29 -48 -67 -70.5t-99 -22.5q-54 0 -80 34h-2v-226h-88v354v376h88v-347q0 -115 101 -115q40 0 69 16t45 43t23 55.5t7 59.5v288h88v-523z" />
    <glyph glyph-name="paragraph" unicode="&#xb6;" horiz-adv-x="537" 
d="M232 -173v517q-95 0 -154.5 52.5t-59.5 131.5q0 96 61 143t170 47h248v-891h-73v831h-119v-831h-73z" />
    <glyph glyph-name="periodcentered" unicode="&#xb7;" horiz-adv-x="278" 
d="M140 315q24 0 43 -18.5t19 -44.5q0 -25 -18.5 -43.5t-44.5 -18.5q-25 0 -43.5 18.5t-18.5 43.5q0 27 19 45t44 18z" />
    <glyph glyph-name="cedilla" unicode="&#xb8;" horiz-adv-x="333" 
d="M79 -86l64 86h47l-46 -62q22 4 31 4q44 0 64 -23t20 -52q0 -40 -32 -66t-86 -26q-44 0 -96 22l17 40q38 -15 65 -15q56 0 56 42q0 20 -16 29.5t-32 9.5q-11 0 -39 -8z" />
    <glyph glyph-name="onesuperior" unicode="&#xb9;" horiz-adv-x="333" 
d="M151 577h-108v46q61 4 85.5 18t37.5 62h56v-422h-71v296z" />
    <glyph glyph-name="ordmasculine" unicode="&#xba;" horiz-adv-x="365" 
d="M341 571q0 -89 -46 -127.5t-112 -38.5t-112 38.5t-46 127.5t46 127.5t112 38.5t112 -38.5t46 -127.5zM274 571q0 18 -3.5 35.5t-12 36.5t-28 30.5t-47.5 11.5t-47.5 -11.5t-28 -30.5t-12 -36.5t-3.5 -35.5t3.5 -35.5t12 -36.5t28 -30.5t47.5 -11.5t47.5 11.5t28 30.5
t12 36.5t3.5 35.5zM35 352h296v-48h-296v48z" />
    <glyph glyph-name="guillemotright" unicode="&#xbb;" 
d="M254 231l-157 -123v88l105 81l-105 81v88l157 -123v-92zM459 231l-157 -123v88l105 81l-105 81v88l157 -123v-92z" />
    <glyph glyph-name="onequarter" unicode="&#xbc;" horiz-adv-x="834" 
d="M419 94v60l206 268h64v-270h67v-58h-67v-94h-64v94h-206zM625 152v187h-2l-142 -187h144zM653 703l-442 -722h-57l442 722h57zM181 580h-108v43q61 4 85.5 18t37.5 62h53v-422h-68v299z" />
    <glyph glyph-name="onehalf" unicode="&#xbd;" horiz-adv-x="834" 
d="M617 703l-442 -722h-57l442 722h57zM151 577h-108v46q61 4 85.5 18t37.5 62h56v-422h-71v296zM529 271h-60q0 39 12 68t29 44.5t40.5 24.5t41 11.5t35.5 2.5q63 0 104.5 -34.5t41.5 -91.5q0 -52 -29.5 -82t-89.5 -60l-45 -23q-55 -29 -80 -70h244v-61h-319q5 112 104 167
l60 33q28 15 36.5 20.5t24 18t20 26t4.5 33.5q3 26 -17.5 46t-66.5 20q-83 0 -90 -93z" />
    <glyph glyph-name="threequarters" unicode="&#xbe;" horiz-adv-x="834" 
d="M473 94v60l206 268h64v-270h67v-58h-67v-94h-64v94h-206zM677 339l-142 -187h144v187h-2zM712 703l-442 -722h-57l442 722h57zM45 410h68q1 -16 4 -28t11.5 -25.5t26 -21t44.5 -7.5q96 0 96 71q0 20 -7.5 34.5t-17 21.5t-26 11t-26.5 4.5t-26 0.5h-23v51h27q82 0 82 67
q0 56 -80 56q-76 0 -81 -80h-61q0 56 34.5 97t116.5 41q65 0 103 -31t38 -80q0 -37 -18 -59t-41 -28v-2q76 -20 76 -97q0 -57 -41.5 -96.5t-125.5 -39.5q-46 0 -84 19q-61 29 -69 121z" />
    <glyph glyph-name="questiondown" unicode="&#xbf;" horiz-adv-x="611" 
d="M439 33h88q-2 -45 -5.5 -69t-21.5 -58.5t-52 -60.5q-59 -46 -145 -46q-89 0 -150.5 52t-61.5 144q0 47 20 80t74 85q39 38 53 54.5t24.5 48.5t9.5 80h88q0 -80 -18.5 -117.5t-76.5 -97.5q-53 -55 -66.5 -76.5t-13.5 -62.5q0 -18 5.5 -36t18 -36.5t38 -30t59.5 -11.5
q133 0 133 158zM265 423v102h97v-102h-97z" />
    <glyph glyph-name="Agrave" unicode="&#xc0;" horiz-adv-x="667" 
d="M477 209h-288l-75 -209h-100l270 718h110l260 -718h-106zM219 295h223l-106 316h-2zM311 788l-130 141h108l89 -141h-67z" />
    <glyph glyph-name="Aacute" unicode="&#xc1;" horiz-adv-x="667" 
d="M477 209h-288l-75 -209h-100l270 718h110l260 -718h-106zM219 295h223l-106 316h-2zM486 929l-130 -141h-67l89 141h108z" />
    <glyph glyph-name="Acircumflex" unicode="&#xc2;" horiz-adv-x="667" 
d="M477 209h-288l-75 -209h-100l270 718h110l260 -718h-106zM219 295h223l-106 316h-2zM333 881l-66 -93h-79l99 141h93l99 -141h-80z" />
    <glyph glyph-name="Atilde" unicode="&#xc3;" horiz-adv-x="667" 
d="M477 209h-288l-75 -209h-100l270 718h110l260 -718h-106zM219 295h223l-106 316h-2zM454 917h50q-5 -47 -32 -78t-68 -31q-20 0 -59 13l-26 9q-44 15 -61 15q-33 0 -47 -44h-48q15 107 104 107q29 0 68 -15l22 -9q31 -13 47 -13q18 0 29.5 8.5t14.5 16.5t6 21z" />
    <glyph glyph-name="Adieresis" unicode="&#xc4;" horiz-adv-x="667" 
d="M477 209h-288l-75 -209h-100l270 718h110l260 -718h-106zM219 295h223l-106 316h-2zM298 901v-102h-91v102h91zM460 901v-102h-91v102h91z" />
    <glyph glyph-name="Aring" unicode="&#xc5;" horiz-adv-x="667" 
d="M477 209h-288l-75 -209h-100l270 718h110l260 -718h-106zM219 295h223l-106 316h-2zM334 931q40 0 66 -26t26 -66t-26 -66t-66 -26t-66 26t-26 66t26 66t66 26zM282 839q0 -22 15 -37t37 -15t37 15t15 37t-15 37t-37 15t-37 -15t-15 -37z" />
    <glyph glyph-name="AE" unicode="&#xc6;" horiz-adv-x="1000" 
d="M192 209l-79 -209h-105l292 718h644v-86h-390v-220h356v-86h-356v-240h397v-86h-494v209h-265zM457 295v337h-97l-133 -337h230z" />
    <glyph glyph-name="Ccedilla" unicode="&#xc7;" horiz-adv-x="722" 
d="M265 -203l17 40q38 -15 65 -15q56 0 56 42q0 20 -16 29.5t-32 9.5q-11 0 -39 -8l-17 19l51 69q-61 2 -114 24.5t-97 66.5t-69.5 118.5t-25.5 170.5q0 168 90 271t245 103q131 0 207.5 -68.5t87.5 -166.5h-94q-10 45 -32.5 76t-53 46t-58 21t-57.5 6q-102 0 -168.5 -74.5
t-66.5 -210.5q0 -299 238 -299q28 0 55 8t58 27.5t55.5 61t36.5 100.5h94q-10 -67 -36 -118.5t-56 -80.5t-68.5 -48t-66.5 -25.5t-57 -8.5l-33 -45q22 4 31 4q44 0 64 -23t20 -52q0 -40 -32 -66t-86 -26q-44 0 -96 22z" />
    <glyph glyph-name="Egrave" unicode="&#xc8;" horiz-adv-x="667" 
d="M616 86v-86h-530v718h523v-86h-426v-220h393v-86h-393v-240h433zM311 788l-130 141h108l89 -141h-67z" />
    <glyph glyph-name="Eacute" unicode="&#xc9;" horiz-adv-x="667" 
d="M616 86v-86h-530v718h523v-86h-426v-220h393v-86h-393v-240h433zM486 929l-130 -141h-67l89 141h108z" />
    <glyph glyph-name="Ecircumflex" unicode="&#xca;" horiz-adv-x="667" 
d="M616 86v-86h-530v718h523v-86h-426v-220h393v-86h-393v-240h433zM333 881l-66 -93h-79l99 141h93l99 -141h-80z" />
    <glyph glyph-name="Edieresis" unicode="&#xcb;" horiz-adv-x="667" 
d="M616 86v-86h-530v718h523v-86h-426v-220h393v-86h-393v-240h433zM298 901v-102h-91v102h91zM460 901v-102h-91v102h91z" />
    <glyph glyph-name="Igrave" unicode="&#xcc;" horiz-adv-x="278" 
d="M188 718v-718h-97v718h97zM117 788l-130 141h108l89 -141h-67z" />
    <glyph glyph-name="Iacute" unicode="&#xcd;" horiz-adv-x="278" 
d="M188 718v-718h-97v718h97zM292 929l-130 -141h-67l89 141h108z" />
    <glyph glyph-name="Icircumflex" unicode="&#xce;" horiz-adv-x="278" 
d="M188 718v-718h-97v718h97zM139 881l-66 -93h-79l99 141h93l99 -141h-80z" />
    <glyph glyph-name="Idieresis" unicode="&#xcf;" horiz-adv-x="278" 
d="M188 718v-718h-97v718h97zM104 901v-102h-91v102h91zM266 901v-102h-91v102h91z" />
    <glyph glyph-name="Eth" unicode="&#xd0;" horiz-adv-x="722" 
d="M370 412v-86h-192v-243h188q96 0 152 73t56 207q0 133 -57 202.5t-158 69.5h-181v-223h192zM0 326v86h81v306h291q139 0 220.5 -96t81.5 -253q0 -19 -1.5 -40t-8.5 -59t-18.5 -72t-35 -71.5t-54.5 -64.5t-79.5 -44.5t-108.5 -17.5h-287v326h-81z" />
    <glyph glyph-name="Ntilde" unicode="&#xd1;" horiz-adv-x="722" 
d="M552 138v580h94v-718h-109l-365 580h-2v-580h-94v718h115l359 -580h2zM492 917h50q-5 -47 -32 -78t-68 -31q-20 0 -59 13l-26 9q-44 15 -61 15q-33 0 -47 -44h-48q15 107 104 107q29 0 68 -15l22 -9q31 -13 47 -13q18 0 29.5 8.5t14.5 16.5t6 21z" />
    <glyph glyph-name="Ograve" unicode="&#xd2;" horiz-adv-x="778" 
d="M639 359q0 129 -67.5 210.5t-182.5 81.5t-182.5 -81.5t-67.5 -210.5t67.5 -210.5t182.5 -81.5t182.5 81.5t67.5 210.5zM739 359q0 -50 -10.5 -99.5t-36 -100.5t-64 -90t-100.5 -63.5t-139 -24.5t-139 24.5t-100.5 63.5t-64 90t-36 100.5t-10.5 99.5t10.5 99.5t36 100.5
t64 90t100.5 63.5t139 24.5t139 -24.5t100.5 -63.5t64 -90t36 -100.5t10.5 -99.5zM367 788l-130 141h108l89 -141h-67z" />
    <glyph glyph-name="Oacute" unicode="&#xd3;" horiz-adv-x="778" 
d="M639 359q0 129 -67.5 210.5t-182.5 81.5t-182.5 -81.5t-67.5 -210.5t67.5 -210.5t182.5 -81.5t182.5 81.5t67.5 210.5zM739 359q0 -50 -10.5 -99.5t-36 -100.5t-64 -90t-100.5 -63.5t-139 -24.5t-139 24.5t-100.5 63.5t-64 90t-36 100.5t-10.5 99.5t10.5 99.5t36 100.5
t64 90t100.5 63.5t139 24.5t139 -24.5t100.5 -63.5t64 -90t36 -100.5t10.5 -99.5zM542 929l-130 -141h-67l89 141h108z" />
    <glyph glyph-name="Ocircumflex" unicode="&#xd4;" horiz-adv-x="778" 
d="M639 359q0 129 -67.5 210.5t-182.5 81.5t-182.5 -81.5t-67.5 -210.5t67.5 -210.5t182.5 -81.5t182.5 81.5t67.5 210.5zM739 359q0 -50 -10.5 -99.5t-36 -100.5t-64 -90t-100.5 -63.5t-139 -24.5t-139 24.5t-100.5 63.5t-64 90t-36 100.5t-10.5 99.5t10.5 99.5t36 100.5
t64 90t100.5 63.5t139 24.5t139 -24.5t100.5 -63.5t64 -90t36 -100.5t10.5 -99.5zM389 881l-66 -93h-79l99 141h93l99 -141h-80z" />
    <glyph glyph-name="Otilde" unicode="&#xd5;" horiz-adv-x="778" 
d="M639 359q0 129 -67.5 210.5t-182.5 81.5t-182.5 -81.5t-67.5 -210.5t67.5 -210.5t182.5 -81.5t182.5 81.5t67.5 210.5zM739 359q0 -50 -10.5 -99.5t-36 -100.5t-64 -90t-100.5 -63.5t-139 -24.5t-139 24.5t-100.5 63.5t-64 90t-36 100.5t-10.5 99.5t10.5 99.5t36 100.5
t64 90t100.5 63.5t139 24.5t139 -24.5t100.5 -63.5t64 -90t36 -100.5t10.5 -99.5zM510 917h50q-5 -47 -32 -78t-68 -31q-20 0 -59 13l-26 9q-44 15 -61 15q-33 0 -47 -44h-48q15 107 104 107q29 0 68 -15l22 -9q31 -13 47 -13q18 0 29.5 8.5t14.5 16.5t6 21z" />
    <glyph glyph-name="Odieresis" unicode="&#xd6;" horiz-adv-x="778" 
d="M639 359q0 129 -67.5 210.5t-182.5 81.5t-182.5 -81.5t-67.5 -210.5t67.5 -210.5t182.5 -81.5t182.5 81.5t67.5 210.5zM739 359q0 -50 -10.5 -99.5t-36 -100.5t-64 -90t-100.5 -63.5t-139 -24.5t-139 24.5t-100.5 63.5t-64 90t-36 100.5t-10.5 99.5t10.5 99.5t36 100.5
t64 90t100.5 63.5t139 24.5t139 -24.5t100.5 -63.5t64 -90t36 -100.5t10.5 -99.5zM354 901v-102h-91v102h91zM516 901v-102h-91v102h91z" />
    <glyph glyph-name="multiply" unicode="&#xd7;" horiz-adv-x="584" 
d="M241 253l-202 202l52 51l201 -201l202 201l51 -51l-201 -202l201 -202l-51 -51l-202 201l-202 -201l-51 51z" />
    <glyph glyph-name="Oslash" unicode="&#xd8;" horiz-adv-x="778" 
d="M590 543l-373 -405q66 -71 172 -71q115 0 182.5 81.5t67.5 210.5q0 111 -49 184zM190 171l374 407q-67 73 -175 73q-115 0 -182.5 -81.5t-67.5 -210.5q0 -109 51 -188zM740 707l-83 -91q82 -105 82 -257q0 -50 -10.5 -99.5t-36 -100.5t-64 -90t-100.5 -63.5t-139 -24.5
q-146 0 -236 87l-80 -87l-32 28l83 90q-85 106 -85 260q0 50 10.5 99.5t36 100.5t64 90t100.5 63.5t139 24.5q150 0 239 -89l81 89z" />
    <glyph glyph-name="Ugrave" unicode="&#xd9;" horiz-adv-x="722" 
d="M547 718h97v-466q0 -117 -74 -194t-215 -77q-136 0 -206 74.5t-70 183.5v479h97v-452q0 -56 16 -96.5t43 -62t57.5 -31t65.5 -9.5q36 0 67.5 9.5t60 30.5t45 61t16.5 96v454zM339 788l-130 141h108l89 -141h-67z" />
    <glyph glyph-name="Uacute" unicode="&#xda;" horiz-adv-x="722" 
d="M547 718h97v-466q0 -117 -74 -194t-215 -77q-136 0 -206 74.5t-70 183.5v479h97v-452q0 -56 16 -96.5t43 -62t57.5 -31t65.5 -9.5q36 0 67.5 9.5t60 30.5t45 61t16.5 96v454zM514 929l-130 -141h-67l89 141h108z" />
    <glyph glyph-name="Ucircumflex" unicode="&#xdb;" horiz-adv-x="722" 
d="M547 718h97v-466q0 -117 -74 -194t-215 -77q-136 0 -206 74.5t-70 183.5v479h97v-452q0 -56 16 -96.5t43 -62t57.5 -31t65.5 -9.5q36 0 67.5 9.5t60 30.5t45 61t16.5 96v454zM361 881l-66 -93h-79l99 141h93l99 -141h-80z" />
    <glyph glyph-name="Udieresis" unicode="&#xdc;" horiz-adv-x="722" 
d="M547 718h97v-466q0 -117 -74 -194t-215 -77q-136 0 -206 74.5t-70 183.5v479h97v-452q0 -56 16 -96.5t43 -62t57.5 -31t65.5 -9.5q36 0 67.5 9.5t60 30.5t45 61t16.5 96v454zM326 901v-102h-91v102h91zM488 901v-102h-91v102h91z" />
    <glyph glyph-name="Yacute" unicode="&#xdd;" horiz-adv-x="667" 
d="M382 289v-289h-97v289l-271 429h113l206 -345l206 345h114zM486 929l-130 -141h-67l89 141h108z" />
    <glyph glyph-name="Thorn" unicode="&#xde;" horiz-adv-x="667" 
d="M183 516v-249h193q146 0 146 129q0 120 -142 120h-197zM86 0v718h97v-119h226q98 0 155.5 -56.5t57.5 -145.5q0 -54 -19.5 -100t-69.5 -79.5t-124 -33.5h-226v-184h-97z" />
    <glyph glyph-name="germandbls" unicode="&#xdf;" horiz-adv-x="611" 
d="M67 0v532q0 89 60.5 142.5t170.5 53.5t174.5 -49t64.5 -131q0 -34 -8.5 -61t-25 -45t-25 -25t-23.5 -17q52 -14 84 -63.5t32 -98.5q0 -127 -69 -190t-183 -63q-20 0 -53 7v75q22 -3 44 -3q170 0 170 150q0 140 -170 140q-23 0 -39 -4v79q18 -2 23 -2q155 0 155 113
q0 50 -39.5 81t-112.5 31q-80 0 -111 -36t-31 -106v-510h-88z" />
    <glyph glyph-name="agrave" unicode="&#xe0;" 
d="M143 364h-81q6 174 216 174q17 0 36.5 -2t49.5 -11t52.5 -23.5t39 -43t16.5 -66.5v-301q0 -31 29 -31q9 0 29 4v-64q-38 -10 -48 -10q-53 0 -71.5 21.5t-21.5 58.5q-78 -85 -189 -85q-72 0 -118 42t-46 109q0 17 2.5 32.5t12 38.5t25.5 40.5t46.5 32.5t72.5 20l145 18
q46 4 46 62q0 85 -123 85q-35 0 -59.5 -9.5t-36.5 -27t-16.5 -31t-7.5 -33.5zM384 181v86q-22 -17 -145 -33q-21 -3 -36.5 -7t-35 -12.5t-30 -25.5t-10.5 -40q0 -91 95 -91q63 0 112.5 36t49.5 87zM256 593l-130 141h108l89 -141h-67z" />
    <glyph glyph-name="aacute" unicode="&#xe1;" 
d="M143 364h-81q6 174 216 174q17 0 36.5 -2t49.5 -11t52.5 -23.5t39 -43t16.5 -66.5v-301q0 -31 29 -31q9 0 29 4v-64q-38 -10 -48 -10q-53 0 -71.5 21.5t-21.5 58.5q-78 -85 -189 -85q-72 0 -118 42t-46 109q0 17 2.5 32.5t12 38.5t25.5 40.5t46.5 32.5t72.5 20l145 18
q46 4 46 62q0 85 -123 85q-35 0 -59.5 -9.5t-36.5 -27t-16.5 -31t-7.5 -33.5zM384 181v86q-22 -17 -145 -33q-21 -3 -36.5 -7t-35 -12.5t-30 -25.5t-10.5 -40q0 -91 95 -91q63 0 112.5 36t49.5 87zM431 734l-130 -141h-67l89 141h108z" />
    <glyph glyph-name="acircumflex" unicode="&#xe2;" 
d="M143 364h-81q6 174 216 174q17 0 36.5 -2t49.5 -11t52.5 -23.5t39 -43t16.5 -66.5v-301q0 -31 29 -31q9 0 29 4v-64q-38 -10 -48 -10q-53 0 -71.5 21.5t-21.5 58.5q-78 -85 -189 -85q-72 0 -118 42t-46 109q0 17 2.5 32.5t12 38.5t25.5 40.5t46.5 32.5t72.5 20l145 18
q46 4 46 62q0 85 -123 85q-35 0 -59.5 -9.5t-36.5 -27t-16.5 -31t-7.5 -33.5zM384 181v86q-22 -17 -145 -33q-21 -3 -36.5 -7t-35 -12.5t-30 -25.5t-10.5 -40q0 -91 95 -91q63 0 112.5 36t49.5 87zM278 686l-66 -93h-79l99 141h93l99 -141h-80z" />
    <glyph glyph-name="atilde" unicode="&#xe3;" 
d="M143 364h-81q6 174 216 174q17 0 36.5 -2t49.5 -11t52.5 -23.5t39 -43t16.5 -66.5v-301q0 -31 29 -31q9 0 29 4v-64q-38 -10 -48 -10q-53 0 -71.5 21.5t-21.5 58.5q-78 -85 -189 -85q-72 0 -118 42t-46 109q0 17 2.5 32.5t12 38.5t25.5 40.5t46.5 32.5t72.5 20l145 18
q46 4 46 62q0 85 -123 85q-35 0 -59.5 -9.5t-36.5 -27t-16.5 -31t-7.5 -33.5zM384 181v86q-22 -17 -145 -33q-21 -3 -36.5 -7t-35 -12.5t-30 -25.5t-10.5 -40q0 -91 95 -91q63 0 112.5 36t49.5 87zM389 722h50q-5 -47 -32 -78t-68 -31q-20 0 -59 13l-26 9q-44 15 -61 15
q-33 0 -47 -44h-48q15 107 104 107q29 0 68 -15l22 -9q31 -13 47 -13q18 0 29.5 8.5t14.5 16.5t6 21z" />
    <glyph glyph-name="adieresis" unicode="&#xe4;" 
d="M143 364h-81q6 174 216 174q17 0 36.5 -2t49.5 -11t52.5 -23.5t39 -43t16.5 -66.5v-301q0 -31 29 -31q9 0 29 4v-64q-38 -10 -48 -10q-53 0 -71.5 21.5t-21.5 58.5q-78 -85 -189 -85q-72 0 -118 42t-46 109q0 17 2.5 32.5t12 38.5t25.5 40.5t46.5 32.5t72.5 20l145 18
q46 4 46 62q0 85 -123 85q-35 0 -59.5 -9.5t-36.5 -27t-16.5 -31t-7.5 -33.5zM384 181v86q-22 -17 -145 -33q-21 -3 -36.5 -7t-35 -12.5t-30 -25.5t-10.5 -40q0 -91 95 -91q63 0 112.5 36t49.5 87zM243 706v-102h-91v102h91zM405 706v-102h-91v102h91z" />
    <glyph glyph-name="aring" unicode="&#xe5;" 
d="M143 364h-81q6 174 216 174q17 0 36.5 -2t49.5 -11t52.5 -23.5t39 -43t16.5 -66.5v-301q0 -31 29 -31q9 0 29 4v-64q-38 -10 -48 -10q-53 0 -71.5 21.5t-21.5 58.5q-78 -85 -189 -85q-72 0 -118 42t-46 109q0 17 2.5 32.5t12 38.5t25.5 40.5t46.5 32.5t72.5 20l145 18
q46 4 46 62q0 85 -123 85q-35 0 -59.5 -9.5t-36.5 -27t-16.5 -31t-7.5 -33.5zM384 181v86q-22 -17 -145 -33q-21 -3 -36.5 -7t-35 -12.5t-30 -25.5t-10.5 -40q0 -91 95 -91q63 0 112.5 36t49.5 87zM279 756q40 0 66 -26t26 -66t-26 -66t-66 -26t-66 26t-26 66t26 66t66 26z
M227 664q0 -22 15 -37t37 -15t37 15t15 37t-15 37t-37 15t-37 -15t-15 -37z" />
    <glyph glyph-name="ae" unicode="&#xe6;" horiz-adv-x="889" 
d="M465 303h291q-10 156 -146 156q-60 0 -102.5 -47t-42.5 -109zM752 164h88q-3 -28 -26.5 -71t-66.5 -72q-54 -36 -142 -36q-131 0 -192 109q-72 -109 -213 -109q-72 0 -118 42t-46 109q0 17 2.5 32.5t12 38.5t25.5 40.5t46.5 32.5t72.5 20l145 18q46 4 46 62q0 85 -123 85
q-35 0 -59.5 -9.5t-36.5 -27t-16.5 -31t-7.5 -33.5h-81q6 174 216 174q47 0 81.5 -12t49.5 -24t39 -38q40 39 67 52q45 22 107 22q111 0 168 -81.5t57 -223.5h-382q0 -83 38.5 -127.5t113.5 -44.5q57 0 94.5 34.5t40.5 68.5zM384 181v86q-22 -17 -145 -33q-21 -3 -36.5 -7
t-35 -12.5t-30 -25.5t-10.5 -40q0 -91 95 -91q63 0 112.5 36t49.5 87z" />
    <glyph glyph-name="ccedilla" unicode="&#xe7;" horiz-adv-x="500" 
d="M155 -203l17 40q38 -15 65 -15q56 0 56 42q0 20 -16 29.5t-32 9.5q-11 0 -39 -8l-17 19l54 73q-99 7 -156 79t-57 181q0 129 63.5 210t187.5 81q94 0 142 -56t54 -135h-85q-18 112 -124 112q-75 0 -109.5 -58t-34.5 -139q0 -201 143 -201q45 0 79.5 32.5t45.5 91.5h85
q-3 -32 -14 -62.5t-32 -60.5t-57 -50t-83 -24l-37 -50q22 4 31 4q44 0 64 -23t20 -52q0 -40 -32 -66t-86 -26q-44 0 -96 22z" />
    <glyph glyph-name="egrave" unicode="&#xe8;" 
d="M421 164h88q-3 -28 -26.5 -71t-66.5 -72q-54 -36 -142 -36q-108 0 -171 73t-63 189q0 129 63.5 210t187.5 81q111 0 168 -81.5t57 -223.5h-382q0 -83 38.5 -127.5t113.5 -44.5q57 0 94.5 34.5t40.5 68.5zM134 303h291q-10 156 -146 156q-60 0 -102.5 -47t-42.5 -109z
M256 593l-130 141h108l89 -141h-67z" />
    <glyph glyph-name="eacute" unicode="&#xe9;" 
d="M421 164h88q-3 -28 -26.5 -71t-66.5 -72q-54 -36 -142 -36q-108 0 -171 73t-63 189q0 129 63.5 210t187.5 81q111 0 168 -81.5t57 -223.5h-382q0 -83 38.5 -127.5t113.5 -44.5q57 0 94.5 34.5t40.5 68.5zM134 303h291q-10 156 -146 156q-60 0 -102.5 -47t-42.5 -109z
M431 734l-130 -141h-67l89 141h108z" />
    <glyph glyph-name="ecircumflex" unicode="&#xea;" 
d="M421 164h88q-3 -28 -26.5 -71t-66.5 -72q-54 -36 -142 -36q-108 0 -171 73t-63 189q0 129 63.5 210t187.5 81q111 0 168 -81.5t57 -223.5h-382q0 -83 38.5 -127.5t113.5 -44.5q57 0 94.5 34.5t40.5 68.5zM134 303h291q-10 156 -146 156q-60 0 -102.5 -47t-42.5 -109z
M278 686l-66 -93h-79l99 141h93l99 -141h-80z" />
    <glyph glyph-name="edieresis" unicode="&#xeb;" 
d="M421 164h88q-3 -28 -26.5 -71t-66.5 -72q-54 -36 -142 -36q-108 0 -171 73t-63 189q0 129 63.5 210t187.5 81q111 0 168 -81.5t57 -223.5h-382q0 -83 38.5 -127.5t113.5 -44.5q57 0 94.5 34.5t40.5 68.5zM134 303h291q-10 156 -146 156q-60 0 -102.5 -47t-42.5 -109z
M243 706v-102h-91v102h91zM405 706v-102h-91v102h91z" />
    <glyph glyph-name="igrave" unicode="&#xec;" horiz-adv-x="278" 
d="M183 523v-523h-88v523h88zM117 593l-130 141h108l89 -141h-67z" />
    <glyph glyph-name="iacute" unicode="&#xed;" horiz-adv-x="278" 
d="M183 523v-523h-88v523h88zM292 734l-130 -141h-67l89 141h108z" />
    <glyph glyph-name="icircumflex" unicode="&#xee;" horiz-adv-x="278" 
d="M183 523v-523h-88v523h88zM139 686l-66 -93h-79l99 141h93l99 -141h-80z" />
    <glyph glyph-name="idieresis" unicode="&#xef;" horiz-adv-x="278" 
d="M183 523v-523h-88v523h88zM104 706v-102h-91v102h91zM266 706v-102h-91v102h91z" />
    <glyph glyph-name="eth" unicode="&#xf0;" 
d="M126 254q0 -19 3.5 -41.5t13.5 -50t26 -49.5t44.5 -37t64.5 -15t64.5 15t44.5 37t26 49.5t13.5 50t3.5 41.5t-3.5 41.5t-13.5 50t-26 49.5t-44.5 37t-64.5 15t-64.5 -15t-44.5 -37t-26 -49.5t-13.5 -50t-3.5 -41.5zM469 697l-107 -51q77 -71 118.5 -161.5t41.5 -186.5
q0 -86 -22 -149.5t-58 -97.5t-75 -50t-81 -16q-63 0 -112.5 23t-79 62t-44.5 86t-15 98q0 107 61.5 188t167.5 81q82 0 133 -55l2 2q-31 77 -111 142l-124 -62l-42 42l118 57q-41 32 -89 52l74 36q52 -20 91 -51l106 51z" />
    <glyph glyph-name="ntilde" unicode="&#xf1;" 
d="M491 356v-356h-88v322q0 71 -25 104t-87 33q-22 0 -43.5 -7.5t-44 -25.5t-36.5 -54.5t-14 -86.5v-285h-88v523h83v-74h2q60 89 158 89q26 0 50 -4.5t49 -17t43 -32t29.5 -52.5t11.5 -76zM389 722h50q-5 -47 -32 -78t-68 -31q-20 0 -59 13l-26 9q-44 15 -61 15
q-33 0 -47 -44h-48q15 107 104 107q29 0 68 -15l22 -9q31 -13 47 -13q18 0 29.5 8.5t14.5 16.5t6 21z" />
    <glyph glyph-name="ograve" unicode="&#xf2;" 
d="M35 262q0 112 63 194t180 82t180 -82t63 -194t-63 -194t-180 -82t-180 82t-63 194zM126 262q0 -31 6.5 -61.5t22 -64t47.5 -54t76 -20.5t76 20.5t47.5 54t22 64t6.5 61.5t-6.5 61.5t-22 64t-47.5 54t-76 20.5t-76 -20.5t-47.5 -54t-22 -64t-6.5 -61.5zM256 593l-130 141
h108l89 -141h-67z" />
    <glyph glyph-name="oacute" unicode="&#xf3;" 
d="M35 262q0 112 63 194t180 82t180 -82t63 -194t-63 -194t-180 -82t-180 82t-63 194zM126 262q0 -31 6.5 -61.5t22 -64t47.5 -54t76 -20.5t76 20.5t47.5 54t22 64t6.5 61.5t-6.5 61.5t-22 64t-47.5 54t-76 20.5t-76 -20.5t-47.5 -54t-22 -64t-6.5 -61.5zM431 734l-130 -141
h-67l89 141h108z" />
    <glyph glyph-name="ocircumflex" unicode="&#xf4;" 
d="M35 262q0 112 63 194t180 82t180 -82t63 -194t-63 -194t-180 -82t-180 82t-63 194zM126 262q0 -31 6.5 -61.5t22 -64t47.5 -54t76 -20.5t76 20.5t47.5 54t22 64t6.5 61.5t-6.5 61.5t-22 64t-47.5 54t-76 20.5t-76 -20.5t-47.5 -54t-22 -64t-6.5 -61.5zM278 686l-66 -93
h-79l99 141h93l99 -141h-80z" />
    <glyph glyph-name="otilde" unicode="&#xf5;" 
d="M35 262q0 112 63 194t180 82t180 -82t63 -194t-63 -194t-180 -82t-180 82t-63 194zM126 262q0 -31 6.5 -61.5t22 -64t47.5 -54t76 -20.5t76 20.5t47.5 54t22 64t6.5 61.5t-6.5 61.5t-22 64t-47.5 54t-76 20.5t-76 -20.5t-47.5 -54t-22 -64t-6.5 -61.5zM399 722h50
q-5 -47 -32 -78t-68 -31q-20 0 -59 13l-26 9q-44 15 -61 15q-33 0 -47 -44h-48q15 107 104 107q29 0 68 -15l22 -9q31 -13 47 -13q18 0 29.5 8.5t14.5 16.5t6 21z" />
    <glyph glyph-name="odieresis" unicode="&#xf6;" 
d="M35 262q0 112 63 194t180 82t180 -82t63 -194t-63 -194t-180 -82t-180 82t-63 194zM126 262q0 -31 6.5 -61.5t22 -64t47.5 -54t76 -20.5t76 20.5t47.5 54t22 64t6.5 61.5t-6.5 61.5t-22 64t-47.5 54t-76 20.5t-76 -20.5t-47.5 -54t-22 -64t-6.5 -61.5zM243 706v-102h-91
v102h91zM405 706v-102h-91v102h91z" />
    <glyph glyph-name="divide" unicode="&#xf7;" horiz-adv-x="584" 
d="M545 216h-506v73h506v-73zM224 456q0 28 20.5 48t47.5 20q28 0 48 -20t20 -48q0 -26 -20.5 -47t-47.5 -21t-47.5 20t-20.5 48zM224 49q0 28 20.5 48t47.5 20q28 0 48 -20t20 -48q0 -26 -20.5 -47t-47.5 -21t-47.5 20t-20.5 48z" />
    <glyph glyph-name="oslash" unicode="&#xf8;" horiz-adv-x="611" 
d="M537 519l-69 -78q53 -74 53 -179q0 -112 -63 -194t-180 -82q-97 0 -159 60l-60 -68l-31 26l64 72q-57 76 -57 186q0 112 63 194t180 82q101 0 164 -65l64 72zM151 143l236 267q-40 52 -109 52q-44 0 -76 -20.5t-47.5 -54t-22 -64t-6.5 -61.5q0 -66 25 -119zM408 373
l-234 -265q37 -46 104 -46q44 0 76 20.5t47.5 54t22 64t6.5 61.5q0 63 -22 111z" />
    <glyph glyph-name="ugrave" unicode="&#xf9;" 
d="M489 0h-83v76l-2 2q-29 -48 -67 -70.5t-99 -22.5q-69 0 -119.5 38.5t-50.5 123.5v376h88v-347q0 -115 101 -115q40 0 69 16t45 43t23 55.5t7 59.5v288h88v-523zM256 593l-130 141h108l89 -141h-67z" />
    <glyph glyph-name="uacute" unicode="&#xfa;" 
d="M489 0h-83v76l-2 2q-29 -48 -67 -70.5t-99 -22.5q-69 0 -119.5 38.5t-50.5 123.5v376h88v-347q0 -115 101 -115q40 0 69 16t45 43t23 55.5t7 59.5v288h88v-523zM431 734l-130 -141h-67l89 141h108z" />
    <glyph glyph-name="ucircumflex" unicode="&#xfb;" 
d="M489 0h-83v76l-2 2q-29 -48 -67 -70.5t-99 -22.5q-69 0 -119.5 38.5t-50.5 123.5v376h88v-347q0 -115 101 -115q40 0 69 16t45 43t23 55.5t7 59.5v288h88v-523zM278 686l-66 -93h-79l99 141h93l99 -141h-80z" />
    <glyph glyph-name="udieresis" unicode="&#xfc;" 
d="M489 0h-83v76l-2 2q-29 -48 -67 -70.5t-99 -22.5q-69 0 -119.5 38.5t-50.5 123.5v376h88v-347q0 -115 101 -115q40 0 69 16t45 43t23 55.5t7 59.5v288h88v-523zM243 706v-102h-91v102h91zM405 706v-102h-91v102h91z" />
    <glyph glyph-name="yacute" unicode="&#xfd;" horiz-adv-x="500" 
d="M252 97l140 426h97q-132 -371 -188 -513l-36 -91t-29 -60.5t-26.5 -41t-28.5 -20t-36 -10.5t-49 -1q-9 0 -37 8v80q25 -9 53 -9q33 0 46.5 18.5t46.5 102.5l-194 537h100l139 -426h2zM403 734l-130 -141h-67l89 141h108z" />
    <glyph glyph-name="thorn" unicode="&#xfe;" 
d="M142 237q0 -93 44.5 -134.5t98.5 -41.5q69 0 105 55.5t36 146.5q0 196 -143 196q-141 0 -141 -222zM58 -207v925h88v-267h2q10 16 18.5 26.5t27 26.5t45.5 25t60 9q101 0 159.5 -73.5t58.5 -187.5q0 -51 -11.5 -99t-36 -93t-72 -72.5t-110.5 -27.5q-95 0 -139 70h-2v-262
h-88z" />
    <glyph glyph-name="ydieresis" unicode="&#xff;" horiz-adv-x="500" 
d="M252 97l140 426h97q-132 -371 -188 -513l-36 -91t-29 -60.5t-26.5 -41t-28.5 -20t-36 -10.5t-49 -1q-9 0 -37 8v80q25 -9 53 -9q33 0 46.5 18.5t46.5 102.5l-194 537h100l139 -426h2zM215 706v-102h-91v102h91zM377 706v-102h-91v102h91z" />
    <glyph glyph-name="dotlessi" unicode="&#x131;" horiz-adv-x="278" 
d="M183 523v-523h-88v523h88z" />
    <glyph glyph-name="Lslash" unicode="&#x141;" 
d="M291 520v-58l-118 -67v-309h364v-86h-461v344l-96 -55v58l96 55v316h97v-265z" />
    <glyph glyph-name="lslash" unicode="&#x142;" horiz-adv-x="222" 
d="M242 435l-87 -50v-385h-88v339l-87 -50v58l87 50v321h88v-275l87 50v-58z" />
    <glyph glyph-name="OE" unicode="&#x152;" horiz-adv-x="1000" 
d="M517 230v262q0 74 -48 118t-125 44q-55 0 -95.5 -24.5t-61.5 -58t-33 -81t-15 -81t-3 -70.5q0 -87 25 -150q27 -65 71 -95t125 -30q59 0 109.5 42t50.5 124zM523 645v73h440v-86h-349v-220h333v-86h-333v-240h351v-86h-443v75h-2q-23 -30 -38.5 -45.5t-56 -32
t-96.5 -16.5q-138 0 -215.5 104t-77.5 270q0 47 7.5 94t28.5 100.5t54 94t89 67t128 26.5q123 0 178 -92h2z" />
    <glyph glyph-name="oe" unicode="&#x153;" horiz-adv-x="944" 
d="M519 303h292q-10 156 -146 156q-60 0 -103 -47t-43 -109zM807 164h88q-3 -28 -26.5 -71t-66.5 -72q-54 -36 -142 -36q-125 0 -194 101q-17 -33 -43 -55t-55 -31t-49.5 -11.5t-40.5 -2.5q-117 0 -180 82t-63 194t63 194t180 82q133 -2 196 -106q69 106 203 106
q111 0 168 -81.5t57 -223.5h-383q0 -83 39 -127.5t114 -44.5q57 0 94.5 34.5t40.5 68.5zM126 262q0 -31 6.5 -61.5t22 -64t47.5 -54t76 -20.5t76 20.5t47.5 54t22 64t6.5 61.5t-6.5 61.5t-22 64t-47.5 54t-76 20.5t-76 -20.5t-47.5 -54t-22 -64t-6.5 -61.5z" />
    <glyph glyph-name="Scaron" unicode="&#x160;" horiz-adv-x="667" 
d="M600 508h-91q-3 76 -55 111t-123 35q-27 0 -52 -5t-52 -17t-43.5 -39t-16.5 -65q0 -71 85 -91l205 -47q163 -39 163 -192q0 -61 -26 -105.5t-69 -67.5t-89.5 -33.5t-96.5 -10.5q-141 0 -217 69q-42 38 -57.5 81.5t-15.5 100.5h91q0 -89 58.5 -128.5t139.5 -39.5
q31 0 59.5 5t59.5 16.5t50 37.5t19 62q0 55 -31.5 80.5t-121.5 46.5l-147 34q-153 36 -153 169q0 93 62.5 157.5t184.5 64.5q72 0 125 -17t81 -40.5t45.5 -57.5t22 -59t6.5 -55zM267 929l66 -93l66 93h80l-99 -141h-93l-99 141h79z" />
    <glyph glyph-name="scaron" unicode="&#x161;" horiz-adv-x="500" 
d="M447 374h-85q-3 88 -124 88q-19 0 -39.5 -4t-42.5 -22t-22 -48t19.5 -43t75.5 -27l88 -22q81 -20 114 -52t33 -86q0 -79 -58 -126t-149 -47q-59 0 -102.5 13.5t-65.5 32t-35.5 46.5t-17 47t-4.5 44h85q1 -20 6 -35t18 -33.5t42 -28.5t73 -10q51 0 85.5 21t34.5 62
q0 30 -22 45t-82 30l-102 25q-121 30 -121 127q0 81 57 124t141 43q53 0 92.5 -15t59 -35t31.5 -45.5t14.5 -41t2.5 -27.5zM184 734l66 -93l66 93h80l-99 -141h-93l-99 141h79z" />
    <glyph glyph-name="Ydieresis" unicode="&#x178;" horiz-adv-x="667" 
d="M382 289v-289h-97v289l-271 429h113l206 -345l206 345h114zM298 901v-102h-91v102h91zM460 901v-102h-91v102h91z" />
    <glyph glyph-name="Zcaron" unicode="&#x17d;" horiz-adv-x="611" 
d="M588 86v-86h-565v81l440 551h-407v86h532v-84l-442 -548h442zM239 929l66 -93l66 93h80l-99 -141h-93l-99 141h79z" />
    <glyph glyph-name="zcaron" unicode="&#x17e;" horiz-adv-x="500" 
d="M460 451l-312 -378h321v-73h-438v69l315 381h-291v73h405v-72zM184 734l66 -93l66 93h80l-99 -141h-93l-99 141h79z" />
    <glyph glyph-name="florin" unicode="&#x192;" 
d="M501 722l-15 -78q-42 17 -57 17q-61 0 -81 -97l-20 -103h114v-70h-127l-60 -327q-27 -146 -77.5 -208.5t-126.5 -62.5q-36 0 -62 12l15 81q28 -14 51 -14q46 0 66.5 40.5t37.5 133.5l64 345h-109v70h123l28 124q14 60 56 106t102 46q39 0 78 -15z" />
    <glyph glyph-name="circumflex" unicode="&#x2c6;" horiz-adv-x="333" 
d="M166 686l-66 -93h-79l99 141h93l99 -141h-80z" />
    <glyph glyph-name="caron" unicode="&#x2c7;" horiz-adv-x="333" 
d="M100 734l66 -93l66 93h80l-99 -141h-93l-99 141h79z" />
    <glyph glyph-name="uni02C9" unicode="&#x2c9;" horiz-adv-x="333" 
d="M323 684v-57h-313v57h313z" />
    <glyph glyph-name="breve" unicode="&#x2d8;" horiz-adv-x="333" 
d="M273 731h48q-15 -136 -159 -136q-37 0 -65.5 11.5t-43 26t-24 36.5t-12 34t-4.5 28h49q12 -35 24 -48q27 -31 84 -31q28 0 48 7t30.5 21.5t15 24t9.5 26.5z" />
    <glyph glyph-name="dotaccent" unicode="&#x2d9;" horiz-adv-x="333" 
d="M212 706v-102h-91v102h91z" />
    <glyph glyph-name="ring" unicode="&#x2da;" horiz-adv-x="333" 
d="M167 756q40 0 66 -26t26 -66t-26 -66t-66 -26t-66 26t-26 66t26 66t66 26zM115 664q0 -22 15 -37t37 -15t37 15t15 37t-15 37t-37 15t-37 -15t-15 -37z" />
    <glyph glyph-name="ogonek" unicode="&#x2db;" horiz-adv-x="333" 
d="M270 -163l17 -40q-51 -22 -96 -22q-54 0 -86 26t-32 66q0 21 6.5 43.5t33 50t69.5 39.5h67v-4q-60 -33 -80 -59t-20 -65q0 -50 56 -50q27 0 65 15z" />
    <glyph glyph-name="tilde" unicode="&#x2dc;" horiz-adv-x="333" 
d="M287 722h50q-5 -47 -32 -78t-68 -31q-20 0 -59 13l-26 9q-44 15 -61 15q-33 0 -47 -44h-48q15 107 104 107q29 0 68 -15l22 -9q31 -13 47 -13q18 0 29.5 8.5t14.5 16.5t6 21z" />
    <glyph glyph-name="hungarumlaut" unicode="&#x2dd;" horiz-adv-x="333" 
d="M229 734l-131 -141h-67l89 141h109zM409 734l-131 -141h-67l89 141h109z" />
    <glyph glyph-name="uni03A9" unicode="&#x3a9;" horiz-adv-x="718" 
d="M194 69v2q-58 52 -95.5 130.5t-37.5 174.5q0 144 85.5 237.5t214.5 93.5q131 0 212.5 -97t81.5 -229q0 -100 -39 -181t-96 -129v-2h149v-69h-244v51q62 40 103.5 121t41.5 193q0 106 -56 189t-153 83q-96 0 -155.5 -79t-59.5 -196q0 -106 42.5 -190t102.5 -121v-51h-244
v69h147z" />
    <glyph glyph-name="uni03BC" unicode="&#x3bc;" horiz-adv-x="578" 
d="M489 0h-83v76l-2 2q-29 -48 -67 -70.5t-99 -22.5q-54 0 -80 34h-2v-226h-88v354v376h88v-347q0 -115 101 -115q40 0 69 16t45 43t23 55.5t7 59.5v288h88v-523z" />
    <glyph glyph-name="pi" unicode="&#x3c0;" horiz-adv-x="575" 
d="M549 447h-79v-300q0 -93 14 -147h-81q-17 29 -17 141v306h-173q-5 -106 -25.5 -243t-46.5 -204h-82q26 78 46.5 210.5t24.5 236.5q-74 0 -110 -12l-12 55q41 28 147 28h402z" />
    <glyph glyph-name="uni0401" unicode="&#x401;" horiz-adv-x="667" 
d="M74 0v718h524v-84h-428v-222h395v-84h-395v-244h435v-84h-531zM208 765v102h90v-102h-90zM368 765v102h90v-102h-90z" />
    <glyph glyph-name="uni0402" unicode="&#x402;" horiz-adv-x="761" 
d="M561 718v-85h-249v-242q91 38 163 38q104 0 169 -61q76 -71 76 -210q0 -87 -29.5 -163t-90.5 -125q-38 -30 -84.5 -47.5t-71.5 -21t-63 -5.5v85q96 9 155 56q89 72 89 216q0 90 -43 141t-120 51q-56 0 -150 -34v-311h-96v633h-203v85h548z" />
    <glyph glyph-name="uni0403" unicode="&#x403;" horiz-adv-x="519" 
d="M74 0v718h422v-84h-326v-634h-96zM231 765l89 144h109l-131 -144h-67z" />
    <glyph glyph-name="uni0404" unicode="&#x404;" horiz-adv-x="722" 
d="M580 257h93q-5 -49 -26.5 -96t-57.5 -88t-93 -66t-125 -25q-43 0 -85 9.5t-88 35.5t-80 65.5t-56.5 106t-22.5 151.5q0 84 20 151.5t52.5 110.5t77 71.5t90.5 40.5t95 12q70 0 127 -21.5t91 -56.5t53.5 -74t22.5 -79h-94q-18 69 -70.5 108t-126.5 39q-76 0 -130.5 -38.5
t-78 -90.5t-27.5 -111h257v-84h-257q1 -57 16.5 -103t39 -75t54 -48.5t60.5 -27.5t60 -8q86 0 142 57t67 134z" />
    <glyph glyph-name="uni0405" unicode="&#x405;" horiz-adv-x="667" 
d="M597 507h-90q-4 64 -48 104.5t-128 40.5q-169 0 -169 -125q0 -38 30.5 -61t91.5 -38l143 -35q99 -24 145 -70.5t46 -121.5q0 -61 -25 -105.5t-68 -68.5t-91.5 -34.5t-105.5 -10.5q-136 0 -208 68t-72 171v12h90q0 -79 55 -123t137 -44q84 0 138 30t54 90q0 50 -31 77
t-108 45l-128 32q-96 24 -139.5 67.5t-43.5 114.5q0 93 66 153.5t188 60.5q123 0 197 -59.5t74 -169.5z" />
    <glyph glyph-name="uni0406" unicode="&#x406;" horiz-adv-x="278" 
d="M91 0v718h96v-718h-96z" />
    <glyph glyph-name="uni0407" unicode="&#x407;" horiz-adv-x="278" 
d="M91 0v718h96v-718h-96zM14 765v102h90v-102h-90zM174 765v102h90v-102h-90z" />
    <glyph glyph-name="uni0408" unicode="&#x408;" horiz-adv-x="500" 
d="M330 197v521h96v-516q0 -123 -59.5 -171.5t-156.5 -48.5q-81 0 -137 48t-56 144v57h90v-50q0 -57 25.5 -86t82.5 -29q56 0 85.5 29.5t29.5 101.5z" />
    <glyph glyph-name="uni0409" unicode="&#x409;" horiz-adv-x="1000" 
d="M479 634h-219l-15 -383q-1 -35 -2 -55t-5 -52.5t-10 -52t-18 -43t-28 -36t-40 -21.5t-55 -9q-38 0 -66 12v84q20 -12 50 -12q28 0 43 13t24 53.5t11 121.5l15 464h411v-296h135q126 0 188.5 -55.5t62.5 -155.5q0 -97 -60 -154t-167 -57h-255v634zM575 338v-254h146
q138 0 138 127q0 68 -40.5 97.5t-118.5 29.5h-125z" />
    <glyph glyph-name="uni040A" unicode="&#x40a;" horiz-adv-x="1000" 
d="M577 338v-254h129q138 0 138 127q0 68 -40.5 97.5t-118.5 29.5h-108zM74 0v718h96v-296h311v296h96v-296h118q126 0 188.5 -55.5t62.5 -155.5q0 -97 -60 -154t-167 -57h-238v338h-311v-338h-96z" />
    <glyph glyph-name="uni040B" unicode="&#x40b;" horiz-adv-x="778" 
d="M219 0v634h-181v84h531v-84h-254v-222h183q219 0 219 -190v-222h-96v208q0 59 -31 89.5t-102 30.5h-173v-328h-96z" />
    <glyph glyph-name="uni040C" unicode="&#x40c;" horiz-adv-x="667" 
d="M265 765l89 144h109l-131 -144h-67zM74 0v718h96v-350l350 350h134l-299 -290l307 -428h-123l-253 362l-116 -112v-250h-96z" />
    <glyph glyph-name="uni040E" unicode="&#x40e;" horiz-adv-x="667" 
d="M125 -4v99q32 -17 77 -17q90 0 90 63q0 26 -23 72l-246 505h112l223 -480l194 480h108l-235 -537q-26 -59 -44.5 -92.5t-45 -60t-59 -36.5t-80.5 -10q-36 0 -71 14zM179 903h49q17 -78 105 -78t105 78h49q-7 -60 -45 -99t-109 -39t-109 39t-45 99z" />
    <glyph glyph-name="uni040F" unicode="&#x40f;" horiz-adv-x="722" 
d="M74 0v718h102v-634h370v634h102v-718h-239v-154h-96v154h-239z" />
    <glyph glyph-name="uni0410" unicode="&#x410;" horiz-adv-x="667" 
d="M550 0l-77 217h-280l-77 -217h-103l270 718h110l260 -718h-103zM446 295l-112 315h-2l-112 -315h226z" />
    <glyph glyph-name="uni0411" unicode="&#x411;" horiz-adv-x="667" 
d="M74 0v718h477v-84h-381v-212h210q123 0 185 -55.5t62 -155.5q0 -97 -60 -154t-167 -57h-326zM170 338v-254h217q138 0 138 127q0 68 -40.5 97.5t-118.5 29.5h-196z" />
    <glyph glyph-name="uni0412" unicode="&#x412;" horiz-adv-x="667" 
d="M74 0v718h257q90 0 134 -12q56 -15 92 -58.5t36 -110.5q0 -43 -23.5 -86t-72.5 -64q130 -45 130 -175q0 -38 -13.5 -73.5t-41.5 -67.5t-78.5 -51.5t-116.5 -19.5h-303zM170 84h193q168 0 168 125t-168 125h-193v-250zM170 412h179q87 0 117.5 30t30.5 85q0 53 -34.5 80
t-113.5 27h-179v-222z" />
    <glyph glyph-name="uni0413" unicode="&#x413;" horiz-adv-x="519" 
d="M74 0v718h422v-84h-326v-634h-96z" />
    <glyph glyph-name="uni0414" unicode="&#x414;" horiz-adv-x="667" 
d="M108 -154h-90v238h65q43 95 62 266q18 150 21 368h427v-634h71v-238h-90v154h-466v-154zM494 634h-238q0 -102 -19 -279q-11 -105 -22 -158.5t-32 -112.5h311v550z" />
    <glyph glyph-name="uni0415" unicode="&#x415;" horiz-adv-x="667" 
d="M74 0v718h524v-84h-428v-222h395v-84h-395v-244h435v-84h-531z" />
    <glyph glyph-name="uni0416" unicode="&#x416;" horiz-adv-x="1002" 
d="M549 718v-308h30l277 308h136l-323 -342l323 -376h-136l-277 329h-30v-329h-96v329h-30l-278 -329h-135l329 372l-325 346h129l280 -308h30v308h96z" />
    <glyph glyph-name="uni0417" unicode="&#x417;" horiz-adv-x="611" 
d="M267 339v78h76q58 0 88.5 33t30.5 78q0 62 -43 93t-105 31q-77 0 -121 -45t-51 -114h-90q5 67 29.5 116t62 76t80.5 39t93 12q102 0 168.5 -51.5t66.5 -145.5q0 -116 -97 -152v-2q127 -36 127 -182q0 -103 -80.5 -162t-186.5 -59q-120 0 -197 54.5t-89 170.5h94
q20 -141 183 -141q81 0 130.5 35t49.5 107q0 59 -38 95t-111 36h-70z" />
    <glyph glyph-name="uni0418" unicode="&#x418;" horiz-adv-x="722" 
d="M74 0v718h96v-581h2l365 581h111v-718h-96v584h-2l-365 -584h-111z" />
    <glyph glyph-name="uni0419" unicode="&#x419;" horiz-adv-x="722" 
d="M207 903h49q17 -78 105 -78t105 78h49q-7 -60 -45 -99t-109 -39t-109 39t-45 99zM74 0v718h96v-581h2l365 581h111v-718h-96v584h-2l-365 -584h-111z" />
    <glyph glyph-name="uni041A" unicode="&#x41a;" horiz-adv-x="667" 
d="M74 0v718h96v-350l350 350h134l-299 -290l307 -428h-123l-253 362l-116 -112v-250h-96z" />
    <glyph glyph-name="uni041B" unicode="&#x41b;" horiz-adv-x="648" 
d="M482 0v634h-222q-2 -34 -6.5 -151t-9 -192.5t-11.5 -148.5q-15 -160 -147 -160q-41 0 -68 12v84q19 -12 51 -12q43 0 57.5 40.5t19.5 166.5q12 277 15 445h417v-718h-96z" />
    <glyph glyph-name="uni041C" unicode="&#x41c;" horiz-adv-x="833" 
d="M74 0v718h138l203 -604h2l203 604h138v-718h-90v604h-2l-202 -604h-96l-202 604h-2v-604h-90z" />
    <glyph glyph-name="uni041D" unicode="&#x41d;" horiz-adv-x="722" 
d="M74 0v718h96v-296h382v296h96v-718h-96v338h-382v-338h-96z" />
    <glyph glyph-name="uni041E" unicode="&#x41e;" horiz-adv-x="778" 
d="M739 359q0 -72 -21.5 -138t-63 -120t-110.5 -86.5t-155 -32.5t-155 32.5t-110.5 86.5t-63 120t-21.5 138q0 170 93.5 273.5t256.5 103.5t256.5 -103.5t93.5 -273.5zM643 359q0 131 -68 212t-186 81t-186 -81t-68 -212q0 -135 64.5 -214t189.5 -79t189.5 79t64.5 214z" />
    <glyph glyph-name="uni041F" unicode="&#x41f;" horiz-adv-x="722" 
d="M74 0v718h574v-718h-96v634h-382v-634h-96z" />
    <glyph glyph-name="uni0420" unicode="&#x420;" horiz-adv-x="667" 
d="M170 382h196q75 0 109.5 31.5t34.5 94.5t-34.5 94.5t-109.5 31.5h-196v-252zM74 0v718h302q114 0 172 -56t58 -154t-58 -154t-172 -56h-206v-298h-96z" />
    <glyph glyph-name="uni0421" unicode="&#x421;" horiz-adv-x="722" 
d="M135 360q0 -134 65 -214t171 -80q86 0 142 57t67 134h93q-5 -49 -26.5 -96t-57.5 -88t-93 -66t-125 -25q-43 0 -85 9.5t-88 35.5t-80 65.5t-56.5 106t-22.5 151.5q0 84 20 151.5t52.5 110.5t77 71.5t90.5 40.5t95 12q70 0 127 -21.5t91 -56.5t53.5 -74t22.5 -79h-94
q-18 69 -70.5 108t-126.5 39q-110 0 -176 -79.5t-66 -212.5z" />
    <glyph glyph-name="uni0422" unicode="&#x422;" horiz-adv-x="611" 
d="M14 634v84h584v-84h-244v-634h-96v634h-244z" />
    <glyph glyph-name="uni0423" unicode="&#x423;" horiz-adv-x="667" 
d="M125 -4v99q32 -17 77 -17q90 0 90 63q0 26 -23 72l-246 505h112l223 -480l194 480h108l-235 -537q-26 -59 -44.5 -92.5t-45 -60t-59 -36.5t-80.5 -10q-36 0 -71 14z" />
    <glyph glyph-name="uni0424" unicode="&#x424;" horiz-adv-x="778" 
d="M656 359q0 95 -58.5 148.5t-160.5 53.5v-404q102 0 160.5 53.5t58.5 148.5zM341 0v85q-132 0 -220.5 71.5t-88.5 202.5t88.5 202.5t220.5 71.5v85h96v-85q132 0 220.5 -71.5t88.5 -202.5t-88.5 -202.5t-220.5 -71.5v-85h-96zM122 359q0 -95 58.5 -148.5t160.5 -53.5v404
q-102 0 -160.5 -53.5t-58.5 -148.5z" />
    <glyph glyph-name="uni0425" unicode="&#x425;" horiz-adv-x="667" 
d="M137 0h-119l255 368l-241 350h119l182 -275l182 275h119l-241 -350l255 -368h-119l-196 295z" />
    <glyph glyph-name="uni0426" unicode="&#x426;" horiz-adv-x="722" 
d="M74 0v718h96v-634h382v634h96v-634h59v-238h-90v154h-543z" />
    <glyph glyph-name="uni0427" unicode="&#x427;" horiz-adv-x="648" 
d="M481 0v296q-78 -28 -194 -28q-114 0 -177 46t-63 166v238h96v-228q0 -84 37 -111t126 -27q101 0 175 28v338h96v-718h-96z" />
    <glyph glyph-name="uni0428" unicode="&#x428;" horiz-adv-x="944" 
d="M74 0v718h96v-634h254v634h96v-634h254v634h96v-718h-796z" />
    <glyph glyph-name="uni0429" unicode="&#x429;" horiz-adv-x="944" 
d="M74 0v718h96v-634h254v634h96v-634h254v634h96v-634h59v-238h-90v154h-765z" />
    <glyph glyph-name="uni042A" unicode="&#x42a;" horiz-adv-x="833" 
d="M256 0v634h-242v84h338v-296h191q126 0 188.5 -55.5t62.5 -155.5q0 -97 -60 -154t-167 -57h-311zM352 338v-254h202q138 0 138 127q0 68 -40.5 97.5t-118.5 29.5h-181z" />
    <glyph glyph-name="uni042B" unicode="&#x42b;" horiz-adv-x="889" 
d="M91 0v718h96v-296h191q126 0 188.5 -55.5t62.5 -155.5q0 -97 -60 -154t-167 -57h-311zM187 84h202q138 0 138 127q0 68 -40.5 97.5t-118.5 29.5h-181v-254zM726 0v718h96v-718h-96z" />
    <glyph glyph-name="uni042C" unicode="&#x42c;" horiz-adv-x="667" 
d="M89 0v718h96v-296h191q126 0 188.5 -55.5t62.5 -155.5q0 -97 -60 -154t-167 -57h-311zM185 84h202q138 0 138 127q0 68 -40.5 97.5t-118.5 29.5h-181v-254z" />
    <glyph glyph-name="uni042D" unicode="&#x42d;" horiz-adv-x="722" 
d="M324 328v84h257q-3 44 -17 84t-40 76.5t-70.5 58t-102.5 21.5q-74 0 -126.5 -39t-70.5 -108h-94q3 40 22.5 79t53.5 74t91 56.5t127 21.5q62 0 118 -20.5t104.5 -62.5t77.5 -116.5t29 -172.5q0 -87 -22.5 -155.5t-57 -110t-80.5 -68.5t-89.5 -37.5t-87.5 -10.5
q-66 0 -122 25t-91.5 66t-57 88t-26.5 96h93q11 -77 67 -134t142 -57q30 0 60 8t60.5 27.5t54 48.5t39 75t16.5 103h-257z" />
    <glyph glyph-name="uni042E" unicode="&#x42e;" horiz-adv-x="1000" 
d="M74 0v718h96v-316h93q11 152 103.5 243t244.5 91q163 0 256.5 -103.5t93.5 -273.5q0 -72 -21.5 -138t-63 -120t-110.5 -86.5t-155 -32.5q-106 0 -184.5 49t-117.5 123t-46 164h-93v-318h-96zM865 359q0 131 -68 212t-186 81t-186 -81t-68 -212q0 -135 64.5 -214
t189.5 -79t189.5 79t64.5 214z" />
    <glyph glyph-name="uni042F" unicode="&#x42f;" horiz-adv-x="724" 
d="M640 718v-718h-96v305h-179q-60 0 -85 -3.5t-43 -15.5q-24 -16 -35 -41t-15 -81l-5 -78q-4 -52 -20 -86h-110q28 32 34 95l8 98q3 31 6.5 48t13.5 39.5t30.5 37.5t53.5 25l-29 11.5t-31 18.5t-32 31t-21.5 46.5t-9.5 65.5q0 64 26 108t65 66q49 28 177 28h297zM544 386
v247h-220q-73 0 -100 -16q-54 -30 -54 -108q0 -66 45 -99q23 -17 48 -21t74 -3h207z" />
    <glyph glyph-name="uni0430" unicode="&#x430;" 
d="M149 366h-84q5 173 215 173q84 0 141.5 -36t57.5 -109v-304q0 -31 29 -31q9 0 29 4v-62q-30 -8 -48 -8q-47 0 -69 17t-26 59q-38 -41 -82 -63t-110 -22q-65 0 -112.5 40.5t-47.5 110.5q0 75 45.5 115.5t111.5 48.5l147 18q45 5 45 61q0 89 -120 89q-114 0 -122 -101z
M389 182v84q-8 -6 -19 -10.5t-28.5 -8l-28 -5.5t-36 -5l-33.5 -4q-112 -16 -112 -85q0 -44 26 -68t69 -24q52 0 107 33t55 93z" />
    <glyph glyph-name="uni0431" unicode="&#x431;" 
d="M404 724h68q-6 -58 -45 -86q-16 -10 -30 -13t-66 -5l-37 -2q-75 -3 -111.5 -42.5t-50.5 -129.5q69 75 165 75t160 -67.5t64 -188.5q0 -24 -3 -49t-11.5 -59t-26 -63t-42.5 -54.5t-66 -40.5t-93 -15q-127 0 -190 89q-54 77 -54 217q0 77 15 161.5t49 136.5
q39 58 86.5 79.5t122.5 24.5l32 1q25 1 34.5 2.5t17.5 8t12 20.5zM125 252q0 -29 5 -56.5t19 -62t47 -56t82 -21.5q43 0 74.5 18.5t46 41.5t22.5 57.5t9 50.5t1 37q0 80 -36.5 134.5t-113.5 54.5t-116.5 -55.5t-39.5 -142.5z" />
    <glyph glyph-name="uni0432" unicode="&#x432;" 
d="M74 0v523h223q191 0 191 -139q0 -63 -64 -105q90 -34 90 -121q0 -75 -50.5 -116.5t-152.5 -41.5h-237zM164 236v-164h137q68 0 95.5 20.5t27.5 61.5t-27.5 61.5t-95.5 20.5h-137zM164 451v-149h136q98 0 98 74q0 40 -24.5 57.5t-61.5 17.5h-148z" />
    <glyph glyph-name="uni0433" unicode="&#x433;" horiz-adv-x="388" 
d="M66 0v523h305v-78h-215v-445h-90z" />
    <glyph glyph-name="uni0434" unicode="&#x434;" horiz-adv-x="611" 
d="M507 -128v128h-385v-128h-84v206h69q79 195 79 445h341v-445h64v-206h-84zM198 78h239v367h-170q-10 -127 -28 -213q-20 -101 -41 -154z" />
    <glyph glyph-name="uni0435" unicode="&#x435;" 
d="M424 167h87q-11 -73 -73.5 -128t-154.5 -55q-110 0 -177 72t-67 209q0 68 22.5 122.5t58 86.5t75.5 48.5t80 16.5q111 0 176.5 -67t65.5 -197v-45h-382q1 -77 40 -122.5t107 -45.5q33 0 58.5 9t41.5 26t25 33t17 37zM135 302h292q-1 75 -40.5 117t-104.5 42
q-61 0 -101.5 -44.5t-45.5 -114.5z" />
    <glyph glyph-name="uni0436" unicode="&#x436;" horiz-adv-x="780" 
d="M436 523v-214h26l191 214h108l-225 -248l233 -275h-111l-196 238h-26v-238h-90v238h-26l-198 -238h-111l235 275l-224 248h109l189 -214h26v214h90z" />
    <glyph glyph-name="uni0437" unicode="&#x437;" horiz-adv-x="500" 
d="M201 237v75h36q29 0 53.5 5t45.5 21.5t21 43.5q0 33 -27.5 56t-76.5 23q-38 0 -74.5 -22t-43.5 -76h-84q5 50 26 86t52 54.5t62.5 27t64.5 8.5q77 0 134 -39.5t57 -113.5q0 -43 -22.5 -66t-63.5 -37v-2q37 -7 70.5 -38.5t33.5 -86.5q0 -82 -64 -127t-149 -45
q-99 0 -159.5 48.5t-67.5 128.5h90q7 -53 45 -76t91 -23q60 0 92 24.5t32 67.5q0 38 -31 62t-92 24q-26 0 -51 -3z" />
    <glyph glyph-name="uni0438" unicode="&#x438;" 
d="M62 0v523h90v-391h2l237 391h103v-523h-90v391h-2l-237 -391h-103z" />
    <glyph glyph-name="uni0439" unicode="&#x439;" 
d="M62 0v523h90v-391h2l237 391h103v-523h-90v391h-2l-237 -391h-103zM124 736h49q17 -78 105 -78t105 78h49q-7 -60 -45 -99t-109 -39t-109 39t-45 99z" />
    <glyph glyph-name="uni043A" unicode="&#x43a;" 
d="M74 0v523h90v-248l264 248h118l-229 -211l233 -312h-116l-182 252l-88 -82v-170h-90z" />
    <glyph glyph-name="uni043B" unicode="&#x43b;" horiz-adv-x="574" 
d="M418 0v445h-205l-8 -251q-4 -106 -36 -158t-100 -52q-37 0 -56 16v71q23 -9 38 -9q30 0 45 31.5t17 116.5l11 313h384v-523h-90z" />
    <glyph glyph-name="uni043C" unicode="&#x43c;" horiz-adv-x="666" 
d="M66 0v523h131l138 -429h2l140 429h123v-523h-84v421h-2l-138 -421h-86l-138 421h-2v-421h-84z" />
    <glyph glyph-name="uni043D" unicode="&#x43d;" 
d="M66 0v523h90v-211h244v211h90v-523h-90v234h-244v-234h-90z" />
    <glyph glyph-name="uni043E" unicode="&#x43e;" 
d="M431 262q0 90 -40 144.5t-113 54.5t-113 -54.5t-40 -144.5t40 -145t113 -55t113 55t40 145zM521 262q0 -129 -64.5 -203.5t-178.5 -74.5t-178.5 74.5t-64.5 203.5q0 128 65 202.5t178 74.5t178 -74.5t65 -202.5z" />
    <glyph glyph-name="uni043F" unicode="&#x43f;" 
d="M400 0v445h-244v-445h-90v523h424v-523h-90z" />
    <glyph glyph-name="uni0440" unicode="&#x440;" 
d="M61 -206v729h90v-72h2q43 88 154 88q90 0 152 -67.5t62 -190.5q0 -297 -230 -297q-48 0 -86 23t-52 52h-2v-265h-90zM149 259q0 -89 35 -143t104 -54q71 0 107 54t36 143q0 93 -35.5 147.5t-107.5 54.5q-69 0 -104 -55t-35 -147z" />
    <glyph glyph-name="uni0441" unicode="&#x441;" horiz-adv-x="500" 
d="M393 184h84q-3 -33 -15 -64.5t-36 -64t-68.5 -52t-104.5 -19.5q-38 0 -74 14t-69.5 44t-54 86t-20.5 131q0 126 66.5 203t160.5 77q59 0 102 -18t66 -48.5t33.5 -61t13.5 -64.5h-84q-7 54 -37.5 84t-83.5 30q-72 0 -109.5 -56t-37.5 -151q0 -198 141 -198q48 0 82.5 34
t44.5 94z" />
    <glyph glyph-name="uni0442" unicode="&#x442;" horiz-adv-x="500" 
d="M205 0v445h-180v78h450v-78h-180v-445h-90z" />
    <glyph glyph-name="uni0443" unicode="&#x443;" horiz-adv-x="500" 
d="M205 -14l-194 537h99l139 -426h2l139 426h99l-200 -544q-46 -124 -77.5 -157.5t-102.5 -33.5q-28 0 -50 6v81q27 -9 53 -9q47 0 64 46z" />
    <glyph glyph-name="uni0444" unicode="&#x444;" horiz-adv-x="832" 
d="M371 209v98q0 71 -33 112.5t-80 41.5q-68 0 -101 -55.5t-33 -143.5q0 -37 6.5 -70t20 -65.5t41 -51.5t64.5 -19q55 0 85 40t30 113zM371 -206v269h-2q-26 -46 -58.5 -62.5t-75.5 -16.5q-82 0 -141.5 75t-59.5 206q0 53 11.5 100.5t34.5 87t62.5 63t91.5 23.5
q79 0 135 -78h2v257h90v-257h2q56 78 135 78q52 0 91.5 -23.5t62.5 -63t34.5 -87t11.5 -100.5q0 -131 -59.5 -206t-141.5 -75q-43 0 -75.5 16.5t-58.5 62.5h-2v-269h-90zM574 56q38 0 66 19t42 51.5t20 65.5t6 70q0 88 -33 143.5t-101 55.5q-47 0 -80 -41.5t-33 -112.5v-98
q0 -73 29.5 -113t83.5 -40z" />
    <glyph glyph-name="uni0445" unicode="&#x445;" horiz-adv-x="500" 
d="M377 0l-133 195l-123 -195h-111l183 268l-174 255h113l124 -182l118 182h108l-177 -255l185 -268h-113z" />
    <glyph glyph-name="uni0446" unicode="&#x446;" 
d="M66 0v523h90v-445h244v445h90v-445h50v-206h-84v128h-390z" />
    <glyph glyph-name="uni0447" unicode="&#x447;" horiz-adv-x="538" 
d="M381 0v211q-72 -12 -130 -12q-107 0 -156.5 37.5t-49.5 123.5v163h90v-145q0 -59 30 -83t107 -24q70 0 109 14v238h90v-523h-90z" />
    <glyph glyph-name="uni0448" unicode="&#x448;" horiz-adv-x="778" 
d="M66 0v523h90v-445h188v445h90v-445h188v445h90v-523h-646z" />
    <glyph glyph-name="uni0449" unicode="&#x449;" horiz-adv-x="778" 
d="M678 -128v128h-612v523h90v-445h188v445h90v-445h188v445h90v-445h50v-206h-84z" />
    <glyph glyph-name="uni044A" unicode="&#x44a;" horiz-adv-x="611" 
d="M177 0v445h-164v78h254v-197h137q91 0 140.5 -43.5t49.5 -119.5t-48.5 -119.5t-133.5 -43.5h-235zM267 254v-182h127q110 0 110 91t-118 91h-119z" />
    <glyph glyph-name="uni044B" unicode="&#x44b;" horiz-adv-x="722" 
d="M566 0v523h90v-523h-90zM66 0v523h90v-197h157q85 0 133.5 -44t48.5 -119q0 -76 -48.5 -119.5t-133.5 -43.5h-247zM156 254v-182h139q110 0 110 91t-118 91h-131z" />
    <glyph glyph-name="uni044C" unicode="&#x44c;" horiz-adv-x="500" 
d="M66 0v523h90v-197h145q85 0 133.5 -44t48.5 -119q0 -76 -48.5 -119.5t-133.5 -43.5h-235zM156 254v-182h127q110 0 110 91t-118 91h-119z" />
    <glyph glyph-name="uni044D" unicode="&#x44d;" horiz-adv-x="500" 
d="M189 223v72h180q-5 79 -41 122.5t-98 43.5q-54 0 -85 -29t-40 -73h-86q12 88 73.5 134t139.5 46q110 0 171.5 -76t61.5 -200q0 -126 -61.5 -202.5t-171.5 -76.5q-85 0 -142.5 47t-76.5 140h92q5 -48 39.5 -78.5t84.5 -30.5q66 0 102.5 49.5t37.5 111.5h-180z" />
    <glyph glyph-name="uni044E" unicode="&#x44e;" horiz-adv-x="778" 
d="M653 262q0 90 -40 144.5t-113 54.5t-113 -54.5t-40 -144.5t40 -145t113 -55t113 55t40 145zM66 0v523h90v-221h101q11 111 75 174t168 63q113 0 178 -74.5t65 -202.5q0 -129 -64.5 -203.5t-178.5 -74.5q-106 0 -170.5 65.5t-72.5 180.5h-101v-230h-90z" />
    <glyph glyph-name="uni044F" unicode="&#x44f;" horiz-adv-x="558" 
d="M491 523v-523h-90v207h-116q-32 0 -46 -0.5t-33 -4.5t-27 -12.5t-15 -24.5t-9 -40l-4 -56q0 -1 -1 -10l-2 -17.5t-4 -20.5t-6 -21h-99q18 22 24 77l6 67q5 51 18 69.5t51 33.5q-84 31 -84 124q0 82 67 126q41 26 138 26h232zM401 279v165h-137q-64 0 -86 -12
q-35 -21 -35 -69q0 -29 12.5 -48t35.5 -26t37.5 -8.5t35.5 -1.5h137z" />
    <glyph glyph-name="uni0451" unicode="&#x451;" 
d="M424 167h87q-11 -73 -73.5 -128t-154.5 -55q-110 0 -177 72t-67 209q0 68 22.5 122.5t58 86.5t75.5 48.5t80 16.5q111 0 176.5 -67t65.5 -197v-45h-382q1 -77 40 -122.5t107 -45.5q33 0 58.5 9t41.5 26t25 33t17 37zM135 302h292q-1 75 -40.5 117t-104.5 42
q-61 0 -101.5 -44.5t-45.5 -114.5zM153 610v102h90v-102h-90zM313 610v102h90v-102h-90z" />
    <glyph glyph-name="uni0452" unicode="&#x452;" 
d="M110 0v502h-97v78h97v138h90v-138h229v-78h-229v-137q67 44 130 44q181 0 181 -273q0 -328 -223 -342v78q40 7 67 28t41 56.5t19.5 75.5t5.5 95q0 43 -3 73t-13.5 63.5t-34 50.5t-59.5 17q-55 0 -111 -45v-286h-90z" />
    <glyph glyph-name="uni0453" unicode="&#x453;" horiz-adv-x="388" 
d="M66 0v523h305v-78h-215v-445h-90zM126 592l89 144h109l-131 -144h-67z" />
    <glyph glyph-name="uni0454" unicode="&#x454;" horiz-adv-x="500" 
d="M395 171h92q-19 -93 -76.5 -140t-142.5 -47q-110 0 -171.5 76.5t-61.5 202.5q0 124 61.5 200t171.5 76q78 0 139.5 -46t73.5 -134h-86q-9 44 -40 73t-85 29q-62 0 -98 -43.5t-41 -122.5h180v-72h-180q1 -62 37.5 -111.5t102.5 -49.5q50 0 84.5 30.5t39.5 78.5z" />
    <glyph glyph-name="uni0455" unicode="&#x455;" horiz-adv-x="500" 
d="M35 165h84q6 -109 138 -109q59 0 91.5 24t32.5 62q0 27 -24.5 44.5t-61 25.5t-79 19.5t-79 25t-61 43t-24.5 72.5q0 79 54.5 123t140.5 44q94 0 147.5 -46t54.5 -118h-84q-8 92 -123 92q-50 0 -78 -21t-28 -57q0 -33 34 -51.5t82 -28.5t96.5 -22t82.5 -43.5t34 -82.5
q0 -76 -54 -126.5t-155 -50.5q-102 0 -160 44.5t-61 136.5z" />
    <glyph glyph-name="uni0456" unicode="&#x456;" horiz-adv-x="222" 
d="M66 610v102h90v-102h-90zM66 0v523h90v-523h-90z" />
    <glyph glyph-name="uni0457" unicode="&#x457;" horiz-adv-x="222" 
d="M66 0v523h90v-523h-90zM-14 610v102h90v-102h-90zM146 610v102h90v-102h-90z" />
    <glyph glyph-name="uni0458" unicode="&#x458;" horiz-adv-x="222" 
d="M-17 -203v75h17q42 0 54 12.5t12 47.5v591h90v-596q0 -64 -30 -98.5t-110 -34.5q-16 0 -33 3zM66 610v102h90v-102h-90z" />
    <glyph glyph-name="uni0459" unicode="&#x459;" horiz-adv-x="845" 
d="M411 0v445h-198l-8 -251q-3 -104 -34.5 -157t-101.5 -53q-34 0 -56 16v71q25 -9 39 -9q29 0 44 31.5t18 116.5l10 313h377v-197h120q91 0 140.5 -43.5t49.5 -119.5t-48.5 -119.5t-133.5 -43.5h-218zM501 254v-182h108q110 0 110 91t-118 91h-100z" />
    <glyph glyph-name="uni045A" unicode="&#x45a;" horiz-adv-x="826" 
d="M399 0v254h-243v-254h-90v523h90v-197h243v197h90v-197h115q91 0 140.5 -43.5t49.5 -119.5t-48.5 -119.5t-133.5 -43.5h-213zM489 254v-182h105q110 0 110 91t-118 91h-97z" />
    <glyph glyph-name="uni045B" unicode="&#x45b;" 
d="M413 0v246q0 39 -18 59q-26 30 -67 30q-59 0 -128 -55v-280h-90v502h-97v78h97v138h90v-138h229v-78h-229v-143q70 51 143 51q160 0 160 -154v-256h-90z" />
    <glyph glyph-name="uni045C" unicode="&#x45c;" 
d="M74 0v523h90v-248l264 248h118l-229 -211l233 -312h-116l-182 252l-88 -82v-170h-90zM230 592l89 144h109l-131 -144h-67z" />
    <glyph glyph-name="uni045E" unicode="&#x45e;" horiz-adv-x="500" 
d="M205 -14l-194 537h99l139 -426h2l139 426h99l-200 -544q-46 -124 -77.5 -157.5t-102.5 -33.5q-28 0 -50 6v81q27 -9 53 -9q47 0 64 46zM96 736h49q17 -78 105 -78t105 78h49q-7 -60 -45 -99t-109 -39t-109 39t-45 99z" />
    <glyph glyph-name="uni045F" unicode="&#x45f;" 
d="M66 0v523h90v-445h244v445h90v-523h-167v-128h-90v128h-167z" />
    <glyph glyph-name="uni0462" unicode="&#x462;" horiz-adv-x="803" 
d="M226 0v523h-212v84h212v111h96v-111h272v-84h-272v-101h191q126 0 188.5 -55.5t62.5 -155.5q0 -97 -60 -154t-167 -57h-311zM322 338v-254h202q138 0 138 127q0 68 -40.5 97.5t-118.5 29.5h-181z" />
    <glyph glyph-name="uni0463" unicode="&#x463;" horiz-adv-x="611" 
d="M177 0v445h-164v78h164v195h90v-195h164v-78h-164v-119h145q85 0 133.5 -44t48.5 -119q0 -76 -48.5 -119.5t-133.5 -43.5h-235zM401 254h-134v-182h134q46 0 74.5 22t28.5 69q0 46 -29 68.5t-74 22.5z" />
    <glyph glyph-name="uni0472" unicode="&#x472;" horiz-adv-x="778" 
d="M739 359q0 -72 -21.5 -138t-63 -120t-110.5 -86.5t-155 -32.5t-155 32.5t-110.5 86.5t-63 120t-21.5 138q0 170 93.5 273.5t256.5 103.5t256.5 -103.5t93.5 -273.5zM643 328h-508q7 -122 72 -192t182 -70t182 70t72 192zM137 412h504q-12 109 -79 174.5t-173 65.5
t-173 -65.5t-79 -174.5z" />
    <glyph glyph-name="uni0473" unicode="&#x473;" 
d="M429 223h-302q9 -74 47.5 -117.5t103.5 -43.5t103.5 43.5t47.5 117.5zM127 295h302q-7 76 -46 121t-105 45t-105 -45t-46 -121zM521 262q0 -129 -64.5 -203.5t-178.5 -74.5t-178.5 74.5t-64.5 203.5q0 128 65 202.5t178 74.5t178 -74.5t65 -202.5z" />
    <glyph glyph-name="uni0474" unicode="&#x474;" horiz-adv-x="667" 
d="M271 0l-253 718h120l186 -610h2l163 487q25 74 57 107.5t95 33.5q40 0 60 -15v-85q-21 16 -47 16q-33 0 -50.5 -24.5t-42.5 -97.5l-182 -530h-108z" />
    <glyph glyph-name="uni0475" unicode="&#x475;" horiz-adv-x="500" 
d="M183 0l-181 523h93l138 -433h2l112 348q32 101 115 101q36 0 60 -11v-72q-18 11 -40 11q-42 0 -65 -68l-141 -399h-93z" />
    <glyph glyph-name="uni0490" unicode="&#x490;" 
d="M74 0v718h379v137h84v-221h-367v-634h-96z" />
    <glyph glyph-name="uni0491" unicode="&#x491;" horiz-adv-x="389" 
d="M66 0v523h228v117h78v-195h-216v-445h-90z" />
    <glyph glyph-name="uni04D9" unicode="&#x4d9;" 
d="M132 356h-87q11 73 73.5 128t154.5 55q110 0 177 -72t67 -209q0 -68 -22.5 -122.5t-58 -86.5t-75.5 -48.5t-80 -16.5q-111 0 -176.5 67t-65.5 197v45h382q-1 77 -40 122.5t-107 45.5q-33 0 -58.5 -9t-41.5 -26t-25 -33t-17 -37zM421 221h-292q1 -75 40.5 -117t104.5 -42
q61 0 101.5 44.5t45.5 114.5z" />
    <glyph glyph-name="uni2010" unicode="&#x2010;" horiz-adv-x="333" 
d="M289 322v-90h-245v90h245z" />
    <glyph glyph-name="endash" unicode="&#x2013;" 
d="M556 313v-73h-556v73h556z" />
    <glyph glyph-name="emdash" unicode="&#x2014;" horiz-adv-x="1000" 
d="M1000 313v-73h-1000v73h1000z" />
    <glyph glyph-name="quoteleft" unicode="&#x2018;" horiz-adv-x="222" 
d="M169 576v-106h-104v98q0 133 104 157v-47q-53 -8 -53 -102h53z" />
    <glyph glyph-name="quoteright" unicode="&#x2019;" horiz-adv-x="222" 
d="M53 612v106h104v-98q0 -133 -104 -157v47q53 8 53 102h-53z" />
    <glyph glyph-name="quotesinglbase" unicode="&#x201a;" horiz-adv-x="222" 
d="M53 0v106h104v-98q0 -133 -104 -157v47q53 8 53 102h-53z" />
    <glyph glyph-name="quotedblleft" unicode="&#x201c;" horiz-adv-x="333" 
d="M307 576v-106h-104v98q0 133 104 157v-47q-53 -8 -53 -102h53zM142 576v-106h-104v98q0 133 104 157v-47q-53 -8 -53 -102h53z" />
    <glyph glyph-name="quotedblright" unicode="&#x201d;" horiz-adv-x="333" 
d="M26 612v106h104v-98q0 -133 -104 -157v47q53 8 53 102h-53zM191 612v106h104v-98q0 -133 -104 -157v47q53 8 53 102h-53z" />
    <glyph glyph-name="quotedblbase" unicode="&#x201e;" horiz-adv-x="333" 
d="M26 0v106h104v-98q0 -133 -104 -157v47q53 8 53 102h-53zM191 0v106h104v-98q0 -133 -104 -157v47q53 8 53 102h-53z" />
    <glyph glyph-name="dagger" unicode="&#x2020;" 
d="M326 431v-590h-94v590h-189v76h189v211h94v-211h188v-76h-188z" />
    <glyph glyph-name="daggerdbl" unicode="&#x2021;" 
d="M326 439v-320h188v-76h-188v-202h-94v202h-189v76h189v320h-189v76h189v203h94v-203h188v-76h-188z" />
    <glyph glyph-name="bullet" unicode="&#x2022;" horiz-adv-x="350" 
d="M333 359q0 -65 -46.5 -111t-111.5 -46t-111 45.5t-46 111.5t45.5 112t111.5 46q65 0 111.5 -46.5t46.5 -111.5z" />
    <glyph glyph-name="ellipsis" unicode="&#x2026;" horiz-adv-x="1000" 
d="M219 106v-106h-104v106h104zM552 106v-106h-104v106h104zM885 106v-106h-104v106h104z" />
    <glyph glyph-name="perthousand" unicode="&#x2030;" horiz-adv-x="1000" 
d="M7 539q0 65 45.5 110.5t110.5 45.5t110.5 -45.5t45.5 -110.5t-45.5 -110.5t-110.5 -45.5t-110.5 45t-45.5 111zM70 539q0 -39 27 -66t66 -27q38 0 65.5 27.5t27.5 65.5q0 39 -27.5 66t-65.5 27q-39 0 -66 -27.5t-27 -65.5zM319 149q0 65 45.5 110.5t110.5 45.5
t110.5 -45.5t45.5 -110.5t-45.5 -110.5t-110.5 -45.5t-110.5 45t-45.5 111zM382 149q0 -39 27 -66t66 -27q38 0 65.5 27.5t27.5 65.5q0 39 -27.5 66t-65.5 27q-39 0 -66 -27.5t-27 -65.5zM682 149q0 65 45.5 110.5t110.5 45.5q64 0 110 -45.5t46 -110.5t-45.5 -110.5
t-110.5 -45.5t-110.5 45t-45.5 111zM745 149q0 -39 27 -66t66 -27q38 0 65.5 27.5t27.5 65.5q0 39 -27.5 66t-65.5 27q-39 0 -66 -27.5t-27 -65.5zM544 703l-397 -722h-55l397 722h55z" />
    <glyph glyph-name="guilsinglleft" unicode="&#x2039;" horiz-adv-x="333" 
d="M245 196v-88l-157 123v92l157 123v-88l-105 -81z" />
    <glyph glyph-name="guilsinglright" unicode="&#x203a;" horiz-adv-x="333" 
d="M88 108v88l105 81l-105 81v88l157 -123v-92z" />
    <glyph glyph-name="fraction" unicode="&#x2044;" horiz-adv-x="167" 
d="M333 703l-442 -722h-57l442 722h57z" />
    <glyph glyph-name="Euro" unicode="&#x20ac;" 
d="M541 628l-32 -94q-46 90 -161 90q-71 0 -109.5 -53t-44.5 -127h285l-24 -72h-264v-71h239l-24 -72h-209q5 -75 46.5 -122t99.5 -47q51 0 101 24t65 47v-99q-7 -6 -25.5 -16.5t-57 -22.5t-76.5 -12q-106 0 -168.5 63t-78.5 185h-79l25 72h48v71h-72l25 72h51
q12 124 76 191.5t177 67.5q63 0 112.5 -21t74.5 -54z" />
    <glyph glyph-name="uni2113" unicode="&#x2113;" horiz-adv-x="489" 
d="M428 148l39 -35q-67 -127 -190 -127q-81 0 -122 50.5t-46 129.5v13q-9 -7 -28 -23t-28 -23l-25 47l80 69v269q0 126 45.5 184t112.5 58q62 0 94 -46t32 -118q0 -164 -204 -363v-34q1 -74 31 -110.5t75 -36.5q42 0 77 28.5t57 67.5zM188 523v-209q148 164 148 281
q0 103 -69 103q-32 0 -55.5 -42t-23.5 -133z" />
    <glyph glyph-name="uni2116" unicode="&#x2116;" horiz-adv-x="1000" 
d="M702 379q0 -58 27.5 -94.5t74.5 -36.5t74.5 36.5t27.5 94.5t-27.5 94.5t-74.5 36.5t-74.5 -36.5t-27.5 -94.5zM612 379q0 98 54.5 150.5t137.5 52.5t137.5 -52.5t54.5 -150.5t-54.5 -150.5t-137.5 -52.5t-137.5 52.5t-54.5 150.5zM633 30v78h342v-78h-342zM12 0v718h104
l338 -576h2v576h90v-718h-104l-338 576h-2v-576h-90z" />
    <glyph glyph-name="trademark" unicode="&#x2122;" horiz-adv-x="1000" 
d="M557 718l118 -303l116 303h112v-412h-73v335h-2l-129 -335h-50l-129 335h-2v-335h-73v412h112zM373 718v-60h-127v-352h-73v352h-127v60h327z" />
    <glyph glyph-name="Omega" unicode="&#x2126;" horiz-adv-x="718" 
d="M194 69v2q-58 52 -95.5 130.5t-37.5 174.5q0 144 85.5 237.5t214.5 93.5q131 0 212.5 -97t81.5 -229q0 -100 -39 -181t-96 -129v-2h149v-69h-244v51q62 40 103.5 121t41.5 193q0 106 -56 189t-153 83q-96 0 -155.5 -79t-59.5 -196q0 -106 42.5 -190t102.5 -121v-51h-244
v69h147z" />
    <glyph glyph-name="estimated" unicode="&#x212e;" horiz-adv-x="870" 
d="M836 332h-650q-5 0 -5 -4v-197q0 -13 9 -22q104 -107 245 -107q76 0 143 32t116 87h57q-54 -64 -138 -101.5t-179 -37.5q-166 0 -283 105.5t-117 254.5t117 255t283 106t284 -106t118 -255v-10zM688 358v197q0 13 -9 24q-104 102 -244 102t-244 -106q-10 -9 -10 -24v-193
q0 -7 5 -7h498q4 0 4 7z" />
    <glyph glyph-name="partialdiff" unicode="&#x2202;" 
d="M102 574l-51 62q27 20 47 32t55 23t73 11q76 0 133.5 -36t91.5 -97q47 -85 47 -222q0 -35 -3 -68t-11.5 -77.5t-26.5 -80.5t-44.5 -68.5t-70 -50.5t-99.5 -18t-100 21t-69 56t-37.5 73.5t-12.5 78.5q0 94 59.5 157t156.5 63q103 0 156 -67q1 46 -5 86.5t-22.5 80.5
t-51.5 65t-85 29q-40 0 -75 -16.5t-55 -36.5zM256 355q-73 0 -104.5 -43.5t-31.5 -104.5q0 -75 35.5 -110t92.5 -35q76 0 112.5 66.5t34.5 162.5q-20 22 -57.5 43t-81.5 21z" />
    <glyph glyph-name="Delta" unicode="&#x2206;" horiz-adv-x="600" 
d="M452 84l-167 423l-191 -423h358zM0 0l320 702l280 -702h-600z" />
    <glyph glyph-name="product" unicode="&#x220f;" horiz-adv-x="702" 
d="M675 620h-108v-716h-82v716h-269v-716h-82v716h-108v75h649v-75z" />
    <glyph glyph-name="summation" unicode="&#x2211;" horiz-adv-x="553" 
d="M531 -96h-508v55l264 340l-253 338v58h482v-71h-367v-4l233 -309l-253 -325v-3h402v-79z" />
    <glyph glyph-name="minus" unicode="&#x2212;" horiz-adv-x="584" 
d="M545 216h-506v73h506v-73z" />
    <glyph glyph-name="uni2215" unicode="&#x2215;" horiz-adv-x="167" 
d="M333 703l-442 -722h-57l442 722h57z" />
    <glyph glyph-name="uni2219" unicode="&#x2219;" horiz-adv-x="278" 
d="M140 315q24 0 43 -18.5t19 -44.5q0 -25 -18.5 -43.5t-44.5 -18.5q-25 0 -43.5 18.5t-18.5 43.5q0 27 19 45t44 18z" />
    <glyph glyph-name="radical" unicode="&#x221a;" horiz-adv-x="514" 
d="M69 75l-33 87l115 66l100 -264l120 738h90l-152 -908h-84l-117 304z" />
    <glyph glyph-name="infinity" unicode="&#x221e;" horiz-adv-x="815" 
d="M408 198q-27 -28 -41 -41t-38.5 -31.5t-50 -26.5t-54.5 -8q-72 0 -118.5 47t-46.5 124q0 80 47.5 125t114.5 45q42 0 81 -20.5t58 -40t48 -53.5q29 34 51 55.5t59 40.5t77 19q64 0 112.5 -44t48.5 -127q0 -75 -44.5 -123.5t-117.5 -48.5q-52 0 -95 27.5t-91 80.5z
M463 259q72 -79 131 -79q27 0 51 19t24 61q0 41 -23 62t-54 21q-52 0 -129 -84zM352 259q-22 25 -49 45q-45 38 -83 38q-30 0 -52 -22t-22 -60q0 -37 21.5 -58t55.5 -21q60 0 129 78z" />
    <glyph glyph-name="integral" unicode="&#x222b;" horiz-adv-x="363" 
d="M345 838l-12 -58q-15 10 -37 10q-33 0 -50 -24q-33 -38 -33 -176q0 -77 7 -245t7 -252q0 -136 -42 -200q-32 -55 -103 -55q-38 0 -68 16l14 60q25 -11 45 -11q28 0 46 22q33 43 33 169q0 84 -7 254.5t-7 249.5q0 156 54 214q39 40 98 40q32 0 55 -14z" />
    <glyph glyph-name="approxequal" unicode="&#x2248;" horiz-adv-x="600" 
d="M105 278l-36 70q46 87 125 87q44 0 116 -35t97 -35q19 0 37.5 13.5t27 25t23.5 34.5l36 -70q-20 -28 -34 -44t-38.5 -29.5t-52.5 -13.5q-41 0 -105 35t-112 35q-52 0 -84 -73zM105 68l-36 70q46 87 125 87q44 0 116 -35t97 -35q19 0 37.5 13.5t27 25t23.5 34.5l36 -70
q-20 -28 -34 -44t-38.5 -29.5t-52.5 -13.5q-41 0 -105 35t-112 35q-52 0 -84 -73z" />
    <glyph glyph-name="notequal" unicode="&#x2260;" horiz-adv-x="600" 
d="M47 106v84h172l65 126h-237v84h280l55 106h96l-55 -106h130v-84h-173l-65 -126h238v-84h-281l-54 -106h-96l54 106h-129z" />
    <glyph glyph-name="lessequal" unicode="&#x2264;" horiz-adv-x="600" 
d="M553 168v-84l-506 188v84l506 188v-84l-393 -146zM553 36v-84h-506v84h506z" />
    <glyph glyph-name="greaterequal" unicode="&#x2265;" horiz-adv-x="600" 
d="M47 84v84l393 146l-393 146v84l506 -188v-84zM47 -48v84h506v-84h-506z" />
    <glyph glyph-name="lozenge" unicode="&#x25ca;" horiz-adv-x="575" 
d="M520 347l-201 -393h-67l-198 393l201 394h67zM445 345l-138 273q-13 31 -19 53h-3q-6 -23 -19 -53l-137 -269l139 -275q15 -36 17 -51h4q7 32 18 50z" />
    <glyph glyph-name="acute.cap" unicode="&#xf6c9;" horiz-adv-x="278" 
d="M43 765l89 144h109l-131 -144h-67z" />
    <glyph glyph-name="caron.cap" unicode="&#xf6ca;" horiz-adv-x="278" 
d="M93 765l-99 144h79l66 -96l66 96h79l-99 -144h-92z" />
    <glyph glyph-name="dieresis.cap" unicode="&#xf6cb;" horiz-adv-x="278" 
d="M14 765v102h90v-102h-90zM174 765v102h90v-102h-90z" />
    <glyph glyph-name="grave.cap" unicode="&#xf6ce;" horiz-adv-x="278" 
d="M112 765l-131 144h109l89 -144h-67z" />
    <glyph glyph-name="hungarumlaut.cap" unicode="&#xf6cf;" horiz-adv-x="278" 
d="M127 765l89 144h109l-131 -144h-67zM-35 765l89 144h109l-131 -144h-67z" />
    <glyph glyph-name="macron.cap" unicode="&#xf6d0;" horiz-adv-x="278" 
d="M295 822v-57h-312v57h312z" />
    <glyph glyph-name="breve.cyrcap" unicode="&#xf6d1;" horiz-adv-x="278" 
d="M-15 903h49q17 -78 105 -78t105 78h49q-7 -60 -45 -99t-109 -39t-109 39t-45 99z" />
    <glyph glyph-name="circumflex.cyrcap" unicode="&#xf6d2;" horiz-adv-x="278" 
d="M34 765h-49q7 60 45 99t109 39t109 -39t45 -99h-49q-17 78 -105 78t-105 -78z" />
    <glyph glyph-name="space_uni030F" unicode="&#xf6d3;" horiz-adv-x="222" 
d="M233 592l-131 144h109l89 -144h-67zM53 592l-131 144h109l89 -144h-67z" />
    <glyph glyph-name="breve.cyr" unicode="&#xf6d4;" horiz-adv-x="222" 
d="M-43 730h49q17 -78 105 -78t105 78h49q-7 -60 -45 -99t-109 -39t-109 39t-45 99z" />
    <glyph glyph-name="circumflex.cyr" unicode="&#xf6d5;" horiz-adv-x="222" 
d="M6 592h-49q7 60 45 99t109 39t109 -39t45 -99h-49q-17 78 -105 78t-105 -78z" />
    <glyph glyph-name="space_uni030F.cap" unicode="&#xf6d6;" horiz-adv-x="278" 
d="M261 765l-131 144h109l89 -144h-67zM81 765l-131 144h109l89 -144h-67z" />
    <glyph glyph-name="fi" unicode="&#xfb01;" horiz-adv-x="500" 
d="M262 450h-88v-450h-88v450h-72v73h72v90q0 115 136 115q12 0 40 -2v-79q-22 2 -36 2q-28 0 -40 -14.5t-12 -46.5v-65h88v-73zM434 523v-523h-88v523h88zM434 618h-88v100h88v-100z" />
    <glyph glyph-name="fl" unicode="&#xfb02;" horiz-adv-x="500" 
d="M262 450h-88v-450h-88v450h-72v73h72v90q0 115 136 115q12 0 40 -2v-79q-22 2 -36 2q-28 0 -40 -14.5t-12 -46.5v-65h88v-73zM432 718v-718h-88v718h88z" />
    <glyph glyph-name="a.superior" horiz-adv-x="370" 
d="M346 454v-44q-25 -5 -32 -5q-34 0 -46 13t-14 38q-51 -51 -123 -51q-47 0 -77 25.5t-30 65.5q0 89 112 102l88 10q24 4 24 38q0 39 -76 39q-70 0 -77 -53h-54q4 105 141 105q15 0 32 -2.5t41 -10.5t39 -27.5t15 -47.5v-178q0 -19 18 -19q5 0 19 2zM145 457
q42 0 73.5 21.5t29.5 52.5v39q-10 -10 -92 -20q-69 -7 -69 -43q0 -50 58 -50zM35 352h296v-48h-296v48z" />
    <glyph glyph-name="o.superior" horiz-adv-x="365" 
d="M341 571q0 -89 -46 -127.5t-112 -38.5t-112 38.5t-46 127.5t46 127.5t112 38.5t112 -38.5t46 -127.5zM274 571q0 18 -3.5 35.5t-12 36.5t-28 30.5t-47.5 11.5t-47.5 -11.5t-28 -30.5t-12 -36.5t-3.5 -35.5t3.5 -35.5t12 -36.5t28 -30.5t47.5 -11.5t47.5 11.5t28 30.5
t12 36.5t3.5 35.5zM35 352h296v-48h-296v48z" />
    <glyph glyph-name="one.superior" horiz-adv-x="333" 
d="M151 577h-108v46q61 4 85.5 18t37.5 62h56v-422h-71v296z" />
    <glyph glyph-name="two.superior" horiz-adv-x="333" 
d="M79 552h-60q0 39 12 68t29 44.5t40.5 24.5t41 11.5t35.5 2.5q63 0 104.5 -34.5t41.5 -91.5q0 -52 -29.5 -82t-89.5 -60l-45 -23q-55 -29 -80 -70h244v-61h-319q5 112 104 167l60 33q28 15 36.5 20.5t24 18t20 26t4.5 33.5q3 26 -17.5 46t-66.5 20q-83 0 -90 -93z" />
    <glyph glyph-name="three.superior" horiz-adv-x="333" 
d="M5 410h68q1 -16 4 -28t11.5 -25.5t26 -21t44.5 -7.5q96 0 96 71q0 20 -7.5 34.5t-17 21.5t-26 11t-26.5 4.5t-26 0.5h-23v51h27q82 0 82 67q0 56 -80 56q-76 0 -81 -80h-61q0 56 34.5 97t116.5 41q65 0 103 -31t38 -80q0 -37 -18 -59t-41 -28v-2q76 -20 76 -97
q0 -57 -41.5 -96.5t-125.5 -39.5q-46 0 -84 19q-61 29 -69 121z" />
    <glyph glyph-name="dieresis_acutecomb" horiz-adv-x="222" 
d="M-69 592v102h84v-102h-84zM207 592v102h84v-102h-84zM53 592l39 144h109l-81 -144h-67z" />
    <glyph glyph-name="dieresis_gravecomb" horiz-adv-x="222" 
d="M291 694v-102h-84v102h84zM15 694v-102h-84v102h84zM130 736l39 -144h-67l-81 144h109z" />
    <glyph glyph-name="dieresis_acutecomb.cap" horiz-adv-x="278" 
d="M-41 765v102h84v-102h-84zM235 765v102h84v-102h-84zM81 765l39 144h109l-81 -144h-67z" />
    <glyph glyph-name="dieresis_gravecomb.cap" horiz-adv-x="278" 
d="M319 867v-102h-84v102h84zM43 867v-102h-84v102h84zM158 909l39 -144h-67l-81 144h109z" />
    <glyph glyph-name="uni0431.ital" 
d="M406 723h68q-4 -28 -14.5 -47.5t-21.5 -29.5t-33.5 -15.5t-37.5 -7t-47 -2.5l-77 -3q-24 0 -38 -1.5t-31.5 -6t-25.5 -15t-8 -27.5q0 -16 7.5 -26t25.5 -14t32.5 -5.5t44.5 -1.5q49 -1 74.5 -3t60.5 -15t63 -38q73 -69 73 -201q0 -49 -11 -94t-36.5 -89.5t-76 -71
t-121.5 -26.5q-62 0 -108.5 22.5t-71 53.5t-39 72t-18.5 70t-4 56q0 50 11 89t31 63.5t32 35.5t31 23q-12 3 -20 6.5t-23 14t-23.5 30t-8.5 46.5q0 122 175 126l65 2q66 2 80.5 6.5t20.5 23.5zM431 266q0 21 -4.5 45.5t-18.5 59t-47.5 57t-82.5 22.5q-40 0 -69.5 -15.5
t-45 -37t-25 -51t-12 -50.5t-2.5 -43q0 -37 7 -69t23.5 -62.5t48 -48.5t75.5 -18q153 0 153 211z" />
    </font>
</defs>
</svg>
